# Blender v2.77 (sub 0) OBJ File: 'pipes.blend'
# www.blender.org
mtllib low.mtl
o low_Cylinder.016
v -4.007046 0.000003 -4.726342
v -3.968616 0.390183 -4.726342
v -4.328058 0.461681 -5.232558
v -4.373529 0.000003 -5.232558
v -0.333689 1.673358 -5.232559
v -0.039386 1.314749 -5.232558
v -0.039386 1.314749 -5.697828
v -0.333689 1.673358 -5.697827
v -1.241679 1.847760 -4.726342
v -0.895905 1.662940 -4.726342
v -0.692298 1.967660 -5.232559
v -1.101431 2.186347 -5.232559
v -0.344106 -1.111140 -4.726342
v -0.592832 -1.414213 -4.726342
v -0.333689 -1.673356 -5.232558
v -0.039386 -1.314747 -5.232558
v -3.421260 -1.414212 -4.726342
v -3.669986 -1.111139 -4.726342
v -3.974706 -1.314746 -5.232558
v -3.680404 -1.673355 -5.232558
v -3.118184 1.662942 -4.726342
v -2.772410 1.847761 -4.726342
v -2.912657 2.186348 -5.232559
v -3.321791 1.967662 -5.232559
v -0.045475 0.390181 -4.726342
v -0.007046 0.000001 -4.726342
v 0.359438 0.000001 -5.232558
v 0.313967 0.461679 -5.232558
v -2.007046 -1.999999 -4.726343
v -2.397227 -1.961570 -4.726343
v -2.468725 -2.321011 -5.232558
v -2.007046 -2.366483 -5.232558
v -3.854804 0.765370 -4.726342
v -4.193391 0.905617 -5.232558
v -0.592832 1.414214 -4.726342
v -0.895905 -1.662939 -4.726343
v -0.692298 -1.967659 -5.232558
v -3.854805 -0.765365 -4.726342
v -4.193393 -0.905612 -5.232558
v -2.397223 1.961572 -4.726342
v -2.468720 2.321014 -5.232559
v -0.045475 -0.390180 -4.726342
v 0.313967 -0.461677 -5.232558
v -2.772413 -1.847758 -4.726343
v -2.912661 -2.186345 -5.232558
v -3.669984 1.111143 -4.726342
v -3.974704 1.314751 -5.232558
v -0.344106 1.111141 -4.726342
v -1.241679 -1.847758 -4.726343
v -1.101432 -2.186346 -5.232558
v -3.968616 -0.390178 -4.726342
v -4.328059 -0.461675 -5.232558
v -2.007046 2.000001 -4.726342
v -1.616865 1.961571 -4.726342
v -1.545368 2.321013 -5.232559
v -2.007046 2.366485 -5.232559
v -0.159287 -0.765366 -4.726342
v 0.179300 -0.905613 -5.232558
v -3.118187 -1.662938 -4.726343
v -3.321795 -1.967658 -5.232558
v -3.421257 1.414216 -4.726342
v -3.680400 1.673360 -5.232559
v -0.159287 0.765368 -4.726342
v 0.179300 0.905615 -5.232558
v -1.616866 -1.961570 -4.726343
v -1.545368 -2.321012 -5.232558
v 0.313967 0.461679 -5.697828
v 0.359438 0.000001 -5.697828
v 0.199119 0.000001 -5.850165
v 0.156728 0.430402 -5.850165
v -2.007046 2.366485 -5.697827
v -2.468720 2.321014 -5.697827
v -3.321795 -1.967658 -5.697828
v -2.912661 -2.186345 -5.697828
v 0.179300 0.905615 -5.697828
v -3.680404 -1.673355 -5.697828
v -3.974706 -1.314746 -5.697828
v -4.193393 -0.905612 -5.697828
v 0.313967 -0.461677 -5.697828
v -4.328059 -0.461675 -5.697828
v 0.179300 -0.905613 -5.697828
v -4.373529 0.000003 -5.697828
v -0.039386 -1.314747 -5.697828
v -4.328058 0.461681 -5.697828
v -0.333689 -1.673356 -5.697828
v -4.193391 0.905617 -5.697828
v -0.692298 -1.967659 -5.697828
v -3.974704 1.314751 -5.697828
v -1.101432 -2.186346 -5.697828
v -1.545368 2.321013 -5.697827
v -3.680400 1.673360 -5.697827
v -1.545368 -2.321012 -5.697828
v -1.101431 2.186347 -5.697827
v -3.321791 1.967662 -5.697827
v -2.007046 -2.366483 -5.697828
v -0.692298 1.967660 -5.697827
v -2.912657 2.186348 -5.697827
v -2.468725 -2.321011 -5.697828
v -2.007046 2.019717 -5.850164
v -2.401070 1.980909 -5.850164
v -2.437444 2.163775 -5.850164
v -2.007046 2.206165 -5.850164
v -4.045277 -0.844260 -5.850165
v -3.841405 -1.225677 -5.850165
v 0.156728 -0.430400 -5.850165
v -4.170820 -0.430399 -5.850165
v 0.031184 -0.844262 -5.850165
v -4.213210 0.000003 -5.850165
v -0.172687 -1.225679 -5.850165
v -4.170819 0.430404 -5.850165
v -0.447052 -1.559993 -5.850165
v -4.045275 0.844265 -5.850165
v -0.781366 -1.834358 -5.850165
v -3.841403 1.225682 -5.850165
v -1.162784 -2.038230 -5.850165
v -1.576644 2.163774 -5.850164
v -3.567038 1.559996 -5.850164
v -1.576645 -2.163773 -5.850165
v -1.162783 2.038231 -5.850164
v -3.232723 1.834361 -5.850164
v -2.007046 -2.206164 -5.850165
v -0.781366 1.834359 -5.850164
v -2.851305 2.038232 -5.850164
v -2.437448 -2.163773 -5.850165
v -0.447052 1.559995 -5.850164
v -2.851309 -2.038229 -5.850165
v -0.172687 1.225680 -5.850165
v -3.232726 -1.834357 -5.850165
v 0.031184 0.844263 -5.850165
v -3.567040 -1.559992 -5.850165
v -0.921555 1.624552 -5.954950
v -0.922322 1.623404 -6.040355
v -1.259875 1.803830 -6.040355
v -1.259347 1.805105 -5.954950
v -0.201941 0.747700 -5.954951
v -0.203217 0.747171 -6.040355
v -0.383642 1.084724 -6.040355
v -0.382494 1.085491 -5.954951
v -1.613019 1.980908 -5.850164
v -3.388614 -1.381566 -5.954951
v -3.387638 -1.380590 -6.040355
v -3.091770 -1.623402 -6.040356
v -3.092537 -1.624550 -5.954951
v -0.090757 0.381174 -5.954951
v -0.092111 0.380905 -6.040355
v -3.631598 -1.085489 -5.954951
v -3.630450 -1.084722 -6.040355
v -0.053215 0.000001 -5.954951
v -0.054595 0.000001 -6.040355
v -3.812151 -0.747697 -5.954951
v -3.810875 -0.747168 -6.040355
v -0.090757 -0.381173 -5.954951
v -0.092111 -0.380903 -6.040355
v -3.923335 -0.381171 -5.954951
v -3.921981 -0.380902 -6.040355
v -0.201941 -0.747698 -5.954951
v -0.203217 -0.747170 -6.040355
v -3.960877 0.000003 -5.954951
v -3.959496 0.000003 -6.040355
v -0.382494 -1.085490 -5.954951
v -0.383642 -1.084723 -6.040355
v -3.923334 0.381176 -5.954951
v -3.921980 0.380907 -6.040355
v -0.625478 -1.381567 -5.954951
v -0.626455 -1.380591 -6.040355
v -3.812150 0.747701 -5.954951
v -3.810874 0.747173 -6.040355
v -0.921555 -1.624551 -5.954951
v -0.922322 -1.623403 -6.040356
v -3.631596 1.085493 -5.954951
v -3.630448 1.084726 -6.040355
v -1.259347 -1.805104 -5.954951
v -1.259876 -1.803829 -6.040356
v -3.388611 1.381570 -5.954951
v -3.387635 1.380593 -6.040355
v -1.625873 -1.916288 -5.954951
v -1.626142 -1.914934 -6.040356
v -3.092534 1.624553 -5.954950
v -3.091767 1.623406 -6.040355
v -2.007046 -1.953830 -5.954951
v -2.007046 -1.952450 -6.040356
v -2.388220 -1.916288 -5.954951
v -2.387951 -1.914934 -6.040356
v -2.754742 1.805106 -5.954950
v -2.754214 1.803831 -6.040355
v -2.754217 -1.803828 -6.040356
v -2.754745 -1.805104 -5.954951
v -0.625478 1.381568 -5.954951
v -0.626455 1.380592 -6.040355
v -2.388216 1.916290 -5.954950
v -2.387947 1.914936 -6.040355
v -2.007046 2.000000 -1.979683
v -1.616865 1.961570 -1.979683
v -1.241679 1.847759 -1.979683
v -0.895905 1.662939 -1.979683
v -0.592832 1.414213 -1.979683
v -0.344106 1.111140 -1.979683
v -0.159287 0.765367 -1.979683
v -0.045475 0.390181 -1.979683
v -0.007046 0.000000 -1.979683
v -0.045475 -0.390181 -1.979683
v -0.159287 -0.765367 -1.979683
v -0.344106 -1.111140 -1.979683
v -0.592832 -1.414214 -1.979683
v -0.895905 -1.662939 -1.979683
v -1.241679 -1.847759 -1.979683
v -1.616866 -1.961571 -1.979683
v -2.007046 -2.000000 -1.979683
v -2.397227 -1.961571 -1.979683
v -2.772413 -1.847759 -1.979683
v -3.118187 -1.662939 -1.979683
v -3.421260 -1.414213 -1.979683
v -3.669986 -1.111139 -1.979683
v -3.854805 -0.765365 -1.979683
v -3.968616 -0.390179 -1.979683
v -4.007046 0.000002 -1.979683
v -3.968616 0.390183 -1.979683
v -3.854804 0.765369 -1.979683
v -3.669984 1.111142 -1.979683
v -3.421257 1.414215 -1.979683
v -3.118184 1.662941 -1.979683
v -2.772410 1.847760 -1.979683
v -2.397223 1.961571 -1.979683
v -4.225668 0.441314 -1.719398
v -4.096941 0.865666 -1.719398
v -0.407508 -1.599538 -1.719398
v -0.750297 -1.880858 -1.719398
v -3.887902 1.256751 -1.719398
v -1.141382 -2.089897 -1.719398
v -2.007046 2.262088 -1.719398
v -1.565734 2.218623 -1.719398
v -3.606581 1.599540 -1.719398
v -1.565735 -2.218623 -1.719398
v -1.141382 2.089897 -1.719398
v -3.263792 1.880859 -1.719398
v -2.007046 -2.262088 -1.719398
v -0.750297 1.880857 -1.719398
v -2.872706 2.089898 -1.719398
v -2.448358 -2.218623 -1.719398
v -0.407508 1.599537 -1.719398
v -2.448354 2.218623 -1.719398
v -2.872710 -2.089896 -1.719398
v -0.126188 1.256748 -1.719398
v -3.263796 -1.880857 -1.719398
v 0.082851 0.865663 -1.719398
v -3.606585 -1.599537 -1.719398
v 0.211577 0.441311 -1.719398
v -3.887904 -1.256747 -1.719398
v 0.255042 0.000000 -1.719398
v -4.096943 -0.865662 -1.719398
v 0.211577 -0.441311 -1.719398
v -4.225669 -0.441310 -1.719398
v 0.082851 -0.865663 -1.719398
v -4.269134 0.000002 -1.719398
v -0.126188 -1.256749 -1.719398
v 0.255042 0.000000 -1.169806
v 0.211577 0.441311 -1.169806
v -4.096943 -0.865662 -1.169806
v -3.887904 -1.256747 -1.169806
v 0.211577 -0.441311 -1.169806
v -4.225669 -0.441310 -1.169806
v 0.082851 -0.865663 -1.169806
v -4.269134 0.000002 -1.169806
v -0.126188 -1.256749 -1.169806
v -4.225668 0.441314 -1.169806
v -0.407508 -1.599538 -1.169806
v -4.096941 0.865666 -1.169806
v -0.750297 -1.880858 -1.169806
v -3.887902 1.256751 -1.169806
v -1.141382 -2.089897 -1.169806
v -3.606581 1.599540 -1.169806
v -1.565735 -2.218623 -1.169806
v -1.141382 2.089897 -1.169806
v -1.565734 2.218623 -1.169806
v -3.263792 1.880859 -1.169806
v -2.007046 -2.262088 -1.169806
v -0.750297 1.880857 -1.169806
v -2.872706 2.089898 -1.169806
v -2.448358 -2.218623 -1.169806
v -0.407508 1.599537 -1.169806
v -2.448354 2.218623 -1.169806
v -2.872710 -2.089896 -1.169806
v -0.126188 1.256748 -1.169806
v -2.007046 2.262088 -1.169806
v -3.263796 -1.880857 -1.169806
v 0.082851 0.865663 -1.169806
v -3.606585 -1.599537 -1.169806
v -4.007046 0.000002 1.837138
v -4.373529 0.000003 2.343354
v -4.328058 0.461681 2.343354
v -3.968616 0.390183 1.837138
v -0.333689 1.673357 2.343354
v -0.333689 1.673357 2.808624
v -0.039386 1.314748 2.808624
v -0.039386 1.314748 2.343354
v -1.241679 1.847759 1.837138
v -1.101431 2.186346 2.343354
v -0.692298 1.967660 2.343354
v -0.895905 1.662939 1.837138
v -0.344106 -1.111140 1.837138
v -0.039386 -1.314748 2.343354
v -0.333689 -1.673357 2.343355
v -0.592832 -1.414213 1.837138
v -3.421260 -1.414212 1.837138
v -3.680404 -1.673356 2.343355
v -3.974706 -1.314746 2.343354
v -3.669986 -1.111139 1.837138
v -3.118184 1.662941 1.837138
v -3.321791 1.967662 2.343354
v -2.912657 2.186347 2.343354
v -2.772410 1.847760 1.837138
v -0.045475 0.390181 1.837138
v 0.313967 0.461679 2.343354
v 0.359438 -0.000000 2.343354
v -0.007046 -0.000000 1.837138
v -2.007046 -2.000000 1.837138
v -2.007046 -2.366484 2.343354
v -2.468725 -2.321012 2.343354
v -2.397227 -1.961570 1.837138
v -4.193391 0.905617 2.343354
v -3.854804 0.765369 1.837138
v -0.592832 1.414214 1.837138
v -0.692298 -1.967659 2.343355
v -0.895905 -1.662939 1.837138
v -4.193393 -0.905612 2.343354
v -3.854805 -0.765365 1.837138
v -2.468720 2.321012 2.343354
v -2.397223 1.961571 1.837138
v 0.313967 -0.461678 2.343354
v -0.045475 -0.390180 1.837138
v -2.912661 -2.186346 2.343355
v -2.772413 -1.847758 1.837138
v -3.974704 1.314751 2.343354
v -3.669984 1.111143 1.837138
v -0.344106 1.111141 1.837138
v -1.101432 -2.186347 2.343355
v -1.241679 -1.847759 1.837138
v -4.328059 -0.461676 2.343354
v -3.968616 -0.390179 1.837138
v -2.007046 2.000000 1.837138
v -2.007046 2.366483 2.343354
v -1.545368 2.321012 2.343354
v -1.616865 1.961571 1.837138
v 0.179300 -0.905613 2.343354
v -0.159287 -0.765366 1.837138
v -3.321795 -1.967659 2.343355
v -3.118187 -1.662938 1.837138
v -3.680400 1.673359 2.343354
v -3.421257 1.414216 1.837138
v 0.179300 0.905614 2.343354
v -0.159287 0.765367 1.837138
v -1.545368 -2.321012 2.343354
v -1.616866 -1.961570 1.837138
v 0.313967 0.461679 2.808624
v 0.156728 0.430402 2.960961
v 0.199119 0.000001 2.960961
v 0.359438 0.000001 2.808624
v -2.468720 2.321012 2.808625
v -2.007046 2.366483 2.808625
v -2.912661 -2.186346 2.808624
v -3.321795 -1.967659 2.808624
v 0.179300 0.905614 2.808624
v -3.680404 -1.673355 2.808624
v -3.974706 -1.314746 2.808624
v -4.193393 -0.905612 2.808624
v 0.313967 -0.461677 2.808624
v -4.328059 -0.461676 2.808624
v 0.179300 -0.905613 2.808624
v -4.373529 0.000003 2.808624
v -0.039386 -1.314749 2.808624
v -4.328058 0.461681 2.808624
v -0.333689 -1.673357 2.808624
v -4.193391 0.905617 2.808624
v -0.692298 -1.967659 2.808624
v -3.974704 1.314751 2.808624
v -1.101432 -2.186347 2.808624
v -1.545368 2.321012 2.808625
v -3.680400 1.673359 2.808624
v -1.545368 -2.321012 2.808624
v -1.101431 2.186346 2.808624
v -3.321791 1.967661 2.808624
v -2.007046 -2.366484 2.808624
v -0.692298 1.967659 2.808624
v -2.912657 2.186347 2.808624
v -2.468725 -2.321012 2.808624
v -3.841405 -1.225678 2.960961
v -4.045277 -0.844261 2.960961
v 0.156728 -0.430401 2.960961
v -4.170820 -0.430399 2.960961
v 0.031184 -0.844262 2.960961
v -4.213210 0.000003 2.960961
v -0.172687 -1.225680 2.960961
v -4.170819 0.430404 2.960961
v -0.447052 -1.559994 2.960961
v -4.045275 0.844265 2.960961
v -0.781366 -1.834360 2.960961
v -3.841403 1.225682 2.960961
v -1.162784 -2.038230 2.960961
v -2.007046 2.206165 2.960962
v -1.576644 2.163774 2.960961
v -3.567038 1.559996 2.960961
v -1.576645 -2.163774 2.960961
v -1.162783 2.038229 2.960961
v -3.232723 1.834360 2.960961
v -2.007046 -2.206164 2.960961
v -0.781366 1.834359 2.960961
v -2.851305 2.038230 2.960961
v -2.437448 -2.163774 2.960961
v -0.447052 1.559994 2.960961
v -2.437444 2.163774 2.960961
v -2.851309 -2.038230 2.960961
v -0.172687 1.225680 2.960961
v -3.232726 -1.834358 2.960961
v 0.031184 0.844263 2.960961
v -3.567040 -1.559994 2.960961
v -2.007046 1.953830 3.065747
v -2.007046 1.952451 3.151151
v -1.626142 1.914935 3.151151
v -1.625872 1.916288 3.065747
v -3.686377 1.122097 2.960961
v -3.435199 1.428156 2.960961
v -1.234134 -1.865974 2.960961
v -1.613019 -1.980909 2.960961
v -2.401070 1.980909 2.960961
v -2.007046 2.019716 2.960961
v -3.129138 1.679335 2.960961
v -2.007046 -2.019717 2.960961
v -1.234134 1.865975 2.960961
v -0.884951 1.679332 2.960961
v -2.779955 1.865975 2.960961
v -2.401074 -1.980907 2.960961
v -2.779958 -1.865974 2.960961
v -0.578891 1.428156 2.960961
v -2.388220 -1.916288 3.065747
v -2.387951 -1.914935 3.151151
v -2.754217 -1.803829 3.151151
v -2.754745 -1.805104 3.065747
v -0.327713 1.122095 2.960961
v -1.625872 1.916289 -5.954950
v -1.626142 1.914935 -6.040355
v -2.007046 1.952451 -6.040355
v -2.007046 1.953832 -5.954950
v -3.129141 -1.679332 2.960961
v -0.141071 0.772912 2.960961
v -1.613019 1.980908 2.960961
v -3.435202 -1.428154 2.960961
v -0.026138 0.394028 2.960961
v -3.686379 -1.122093 2.960961
v 0.012670 0.000001 2.960961
v -3.873021 -0.772910 2.960961
v -0.026138 -0.394026 2.960961
v -3.987954 -0.394025 2.960961
v -0.141071 -0.772911 2.960961
v -4.026762 0.000002 2.960961
v -0.327713 -1.122095 2.960961
v -3.987953 0.394030 2.960961
v -0.578891 -1.428155 2.960961
v -3.873019 0.772914 2.960961
v -0.884952 -1.679332 2.960961
v -3.091770 -1.623402 3.151151
v -3.092537 -1.624550 3.065747
v -0.382494 1.085490 3.065747
v -0.383642 1.084723 3.151151
v -0.203217 0.747170 3.151151
v -0.201941 0.747699 3.065747
v -3.387638 -1.380590 3.151151
v -3.388614 -1.381567 3.065747
v -0.092111 0.380904 3.151151
v -0.090757 0.381173 3.065747
v -3.630450 -1.084723 3.151151
v -3.631598 -1.085490 3.065747
v -0.054595 0.000000 3.151151
v -0.053215 0.000001 3.065747
v -3.810875 -0.747170 3.151151
v -3.812151 -0.747697 3.065747
v -0.092111 -0.380904 3.151151
v -0.090757 -0.381174 3.065747
v -3.921981 -0.380902 3.151151
v -3.923335 -0.381171 3.065747
v -0.203217 -0.747171 3.151151
v -0.201941 -0.747698 3.065747
v -3.959496 0.000001 3.151151
v -3.960877 0.000002 3.065747
v -0.383642 -1.084723 3.151151
v -0.382494 -1.085490 3.065747
v -3.921980 0.380906 3.151151
v -3.923334 0.381175 3.065747
v -0.626455 -1.380592 3.151151
v -0.625478 -1.381567 3.065747
v -3.810874 0.747172 3.151151
v -3.812150 0.747701 3.065747
v -0.922322 -1.623403 3.151151
v -0.921555 -1.624552 3.065747
v -3.630448 1.084725 3.151151
v -3.631596 1.085492 3.065747
v -1.259876 -1.803829 3.151151
v -1.259347 -1.805104 3.065747
v -3.387635 1.380592 3.151151
v -3.388611 1.381569 3.065747
v -1.626142 -1.914935 3.151151
v -1.625873 -1.916288 3.065747
v -3.091767 1.623405 3.151151
v -3.092534 1.624552 3.065747
v -2.007046 -1.952451 3.151151
v -2.007046 -1.953831 3.065747
v -1.259347 1.805104 3.065747
v -1.259875 1.803828 3.151151
v -0.922322 1.623404 3.151151
v -0.921555 1.624552 3.065747
v -2.754214 1.803830 3.151151
v -2.754742 1.805106 3.065747
v -0.626455 1.380592 3.151151
v -0.625478 1.381567 3.065747
v -2.387947 1.914935 3.151151
v -2.388216 1.916290 3.065747
v -1.616865 1.961570 -0.909521
v -2.007046 2.000000 -0.909521
v -1.241679 1.847759 -0.909521
v -0.895905 1.662939 -0.909521
v -0.592832 1.414213 -0.909521
v -0.344106 1.111140 -0.909521
v -0.159287 0.765367 -0.909521
v -0.045475 0.390181 -0.909521
v -0.007046 0.000000 -0.909521
v -0.045475 -0.390180 -0.909521
v -0.159287 -0.765367 -0.909521
v -0.344106 -1.111140 -0.909521
v -0.592832 -1.414214 -0.909521
v -0.895905 -1.662939 -0.909521
v -1.241679 -1.847759 -0.909521
v -1.616866 -1.961571 -0.909521
v -2.007046 -2.000000 -0.909521
v -2.397227 -1.961571 -0.909521
v -2.772413 -1.847759 -0.909521
v -3.118187 -1.662939 -0.909521
v -3.421260 -1.414213 -0.909521
v -3.669986 -1.111139 -0.909521
v -3.854805 -0.765365 -0.909521
v -3.968616 -0.390179 -0.909521
v -4.007046 0.000002 -0.909521
v -3.968616 0.390183 -0.909521
v -3.854804 0.765369 -0.909521
v -3.669984 1.111142 -0.909521
v -3.421257 1.414215 -0.909521
v -3.118184 1.662941 -0.909521
v -2.772410 1.847760 -0.909521
v -2.397223 1.961571 -0.909521
v -1.234134 1.865975 -5.850164
v -1.234134 -1.865974 -5.850165
v -0.884952 -1.679332 -5.850165
v -3.686377 1.122097 -5.850165
v -3.873019 0.772915 -5.850165
v -0.578891 -1.428155 -5.850165
v -3.987953 0.394030 -5.850165
v -0.327713 -1.122094 -5.850165
v -4.026762 0.000003 -5.850165
v -0.141071 -0.772911 -5.850165
v -3.987954 -0.394025 -5.850165
v -0.026138 -0.394026 -5.850165
v -3.873021 -0.772910 -5.850165
v 0.012670 0.000001 -5.850165
v -3.686379 -1.122093 -5.850165
v -0.026138 0.394028 -5.850165
v -3.435202 -1.428153 -5.850165
v -0.141072 0.772913 -5.850165
v -3.129141 -1.679331 -5.850165
v -0.327713 1.122095 -5.850165
v -2.779958 -1.865974 -5.850165
v -0.578891 1.428156 -5.850165
v -2.401074 -1.980907 -5.850165
v -2.779955 1.865976 -5.850165
v -0.884951 1.679333 -5.850164
v -2.007046 -2.019715 -5.850165
v -3.129138 1.679335 -5.850164
v -1.613019 -1.980907 -5.850165
v -3.435199 1.428157 -5.850165
vt 0.7196 0.7202
vt 0.7196 0.6921
vt 0.7710 0.6921
vt 0.7710 0.7202
vt 0.7710 0.3853
vt 0.7710 0.3575
vt 0.7994 0.3575
vt 0.7994 0.3853
vt 0.7196 0.4406
vt 0.7196 0.4129
vt 0.7710 0.4129
vt 0.7710 0.4406
vt 0.7196 0.1905
vt 0.7196 0.1624
vt 0.7710 0.1624
vt 0.7710 0.1905
vt 0.7196 0.8333
vt 0.7196 0.8049
vt 0.7710 0.8049
vt 0.7710 0.8333
vt 0.7196 0.5797
vt 0.7196 0.5517
vt 0.7710 0.5517
vt 0.7710 0.5797
vt 0.7196 0.3020
vt 0.7196 0.2742
vt 0.7710 0.2742
vt 0.7710 0.3020
vt 0.7196 0.9489
vt 0.7196 0.9192
vt 0.7710 0.9192
vt 0.7710 0.9489
vt 0.7196 0.6640
vt 0.7710 0.6640
vt 0.7196 0.3853
vt 0.7196 0.1343
vt 0.7710 0.1343
vt 0.7196 0.7766
vt 0.7710 0.7766
vt 0.7196 0.5238
vt 0.7710 0.5238
vt 0.7196 0.2464
vt 0.7710 0.2464
vt 0.7196 0.8903
vt 0.7710 0.8903
vt 0.7196 0.6359
vt 0.7710 0.6359
vt 0.7196 0.3575
vt 0.7196 0.1062
vt 0.7710 0.1062
vt 0.7196 0.7484
vt 0.7710 0.7484
vt 0.7196 0.4959
vt 0.7196 0.4682
vt 0.7710 0.4682
vt 0.7710 0.4959
vt 0.7196 0.2185
vt 0.7710 0.2185
vt 0.7196 0.8617
vt 0.7710 0.8617
vt 0.7196 0.6078
vt 0.7710 0.6078
vt 0.7196 0.3298
vt 0.7710 0.3298
vt 0.7196 0.0779
vt 0.7710 0.0779
vt 0.7196 0.0485
vt 0.7710 0.0485
vt 0.7994 0.3020
vt 0.7994 0.2742
vt 0.8175 0.2742
vt 0.8175 0.3020
vt 0.7994 0.4959
vt 0.7994 0.5238
vt 0.7994 0.8617
vt 0.7994 0.8903
vt 0.7994 0.3298
vt 0.7994 0.8333
vt 0.7994 0.8049
vt 0.7994 0.7766
vt 0.7994 0.2464
vt 0.7994 0.7484
vt 0.7994 0.2185
vt 0.7994 0.7202
vt 0.7994 0.1905
vt 0.7994 0.6921
vt 0.7994 0.1624
vt 0.7994 0.6640
vt 0.7994 0.1343
vt 0.7994 0.6359
vt 0.7994 0.1062
vt 0.7994 0.4682
vt 0.7994 0.6078
vt 0.7994 0.0779
vt 0.7994 0.4406
vt 0.7994 0.5797
vt 0.7994 0.0485
vt 0.7994 0.4129
vt 0.7994 0.5517
vt 0.7994 0.9192
vt 0.7994 0.9489
vt 0.8360 0.4959
vt 0.8360 0.5238
vt 0.8175 0.5238
vt 0.8175 0.4959
vt 0.8175 0.7766
vt 0.8175 0.8049
vt 0.8175 0.2464
vt 0.8175 0.7484
vt 0.8175 0.2185
vt 0.8175 0.7202
vt 0.8175 0.1905
vt 0.8175 0.6921
vt 0.8175 0.1624
vt 0.8175 0.6640
vt 0.8175 0.1343
vt 0.8175 0.6359
vt 0.8175 0.1062
vt 0.8175 0.4682
vt 0.8175 0.6078
vt 0.8175 0.0779
vt 0.8175 0.4406
vt 0.8175 0.5797
vt 0.8175 0.0485
vt 0.8175 0.4129
vt 0.8175 0.5517
vt 0.8175 0.9192
vt 0.8175 0.9489
vt 0.8175 0.3853
vt 0.8175 0.8903
vt 0.8175 0.3575
vt 0.8175 0.8617
vt 0.8175 0.3298
vt 0.8175 0.8333
vt 0.8454 0.4129
vt 0.8508 0.4129
vt 0.8508 0.4406
vt 0.8454 0.4406
vt 0.8454 0.3298
vt 0.8508 0.3298
vt 0.8508 0.3575
vt 0.8454 0.3575
vt 0.8360 0.4682
vt 0.8454 0.8333
vt 0.8508 0.8333
vt 0.8508 0.8617
vt 0.8454 0.8617
vt 0.8454 0.3020
vt 0.8508 0.3020
vt 0.8454 0.8049
vt 0.8508 0.8049
vt 0.8454 0.2742
vt 0.8508 0.2742
vt 0.8454 0.7766
vt 0.8508 0.7766
vt 0.8454 0.2464
vt 0.8508 0.2464
vt 0.8454 0.7484
vt 0.8508 0.7484
vt 0.8454 0.2185
vt 0.8508 0.2185
vt 0.8454 0.7202
vt 0.8508 0.7202
vt 0.8454 0.1905
vt 0.8508 0.1905
vt 0.8454 0.6921
vt 0.8508 0.6921
vt 0.8454 0.1624
vt 0.8508 0.1624
vt 0.8454 0.6640
vt 0.8508 0.6640
vt 0.8454 0.1343
vt 0.8508 0.1343
vt 0.8454 0.6359
vt 0.8508 0.6359
vt 0.8454 0.1062
vt 0.8508 0.1062
vt 0.8454 0.6078
vt 0.8508 0.6078
vt 0.8454 0.0779
vt 0.8508 0.0779
vt 0.8454 0.5797
vt 0.8508 0.5797
vt 0.8454 0.0485
vt 0.8508 0.0485
vt 0.8454 0.9192
vt 0.8508 0.9192
vt 0.8508 0.9489
vt 0.8454 0.9489
vt 0.8454 0.5517
vt 0.8508 0.5517
vt 0.8508 0.8903
vt 0.8454 0.8903
vt 0.8454 0.3853
vt 0.8508 0.3853
vt 0.8454 0.5238
vt 0.8508 0.5238
vt 0.5313 0.4959
vt 0.5313 0.4682
vt 0.5313 0.4406
vt 0.5313 0.4129
vt 0.5313 0.3853
vt 0.5313 0.3575
vt 0.5313 0.3298
vt 0.5313 0.3020
vt 0.5313 0.2742
vt 0.5313 0.2464
vt 0.5313 0.2185
vt 0.5313 0.1905
vt 0.5313 0.1624
vt 0.5313 0.1343
vt 0.5313 0.1062
vt 0.5313 0.0779
vt 0.5313 0.0485
vt 0.5313 0.9489
vt 0.5313 0.9192
vt 0.5313 0.8903
vt 0.5313 0.8617
vt 0.5313 0.8333
vt 0.5313 0.8049
vt 0.5313 0.7766
vt 0.5313 0.7484
vt 0.5313 0.7202
vt 0.5313 0.6921
vt 0.5313 0.6640
vt 0.5313 0.6359
vt 0.5313 0.6078
vt 0.5313 0.5797
vt 0.5313 0.5517
vt 0.5313 0.5238
vt 0.4977 0.6921
vt 0.4977 0.6640
vt 0.4977 0.1624
vt 0.4977 0.1343
vt 0.4977 0.6359
vt 0.4977 0.1062
vt 0.4977 0.4959
vt 0.4977 0.4682
vt 0.4977 0.6078
vt 0.4977 0.0779
vt 0.4977 0.4406
vt 0.4977 0.5797
vt 0.4977 0.0485
vt 0.4977 0.4129
vt 0.4977 0.5517
vt 0.4977 0.9489
vt 0.4977 0.9192
vt 0.4977 0.3853
vt 0.4977 0.5238
vt 0.4977 0.8903
vt 0.4977 0.3575
vt 0.4977 0.8617
vt 0.4977 0.3298
vt 0.4977 0.8333
vt 0.4977 0.3020
vt 0.4977 0.8049
vt 0.4977 0.2742
vt 0.4977 0.7766
vt 0.4977 0.2464
vt 0.4977 0.7484
vt 0.4977 0.2185
vt 0.4977 0.7202
vt 0.4977 0.1905
vt 0.4598 0.2742
vt 0.4598 0.3020
vt 0.4598 0.7766
vt 0.4598 0.8049
vt 0.4598 0.2464
vt 0.4598 0.7484
vt 0.4598 0.2185
vt 0.4598 0.7202
vt 0.4598 0.1905
vt 0.4598 0.6921
vt 0.4598 0.1624
vt 0.4598 0.6640
vt 0.4598 0.1343
vt 0.4598 0.6359
vt 0.4598 0.1062
vt 0.4598 0.6078
vt 0.4598 0.0779
vt 0.4598 0.4406
vt 0.4598 0.4682
vt 0.4598 0.5797
vt 0.4598 0.0485
vt 0.4598 0.4129
vt 0.4598 0.5517
vt 0.4598 0.9192
vt 0.4598 0.9489
vt 0.4598 0.3853
vt 0.4598 0.5238
vt 0.4598 0.8903
vt 0.4598 0.3575
vt 0.4598 0.4959
vt 0.4598 0.8617
vt 0.4598 0.3298
vt 0.4598 0.8333
vt 0.2351 0.7202
vt 0.1854 0.7202
vt 0.1854 0.6921
vt 0.2351 0.6921
vt 0.1854 0.3853
vt 0.1572 0.3853
vt 0.1572 0.3575
vt 0.1854 0.3575
vt 0.2351 0.4406
vt 0.1854 0.4406
vt 0.1854 0.4129
vt 0.2351 0.4129
vt 0.2351 0.1905
vt 0.1854 0.1905
vt 0.1854 0.1624
vt 0.2351 0.1624
vt 0.2351 0.8333
vt 0.1854 0.8333
vt 0.1854 0.8049
vt 0.2351 0.8049
vt 0.2351 0.5797
vt 0.1854 0.5797
vt 0.1854 0.5517
vt 0.2351 0.5517
vt 0.2351 0.3020
vt 0.1854 0.3020
vt 0.1854 0.2742
vt 0.2351 0.2742
vt 0.2351 0.9489
vt 0.1854 0.9489
vt 0.1854 0.9192
vt 0.2351 0.9192
vt 0.1854 0.6640
vt 0.2351 0.6640
vt 0.2351 0.3853
vt 0.1854 0.1343
vt 0.2351 0.1343
vt 0.1854 0.7766
vt 0.2351 0.7766
vt 0.1854 0.5238
vt 0.2351 0.5238
vt 0.1854 0.2464
vt 0.2351 0.2464
vt 0.1854 0.8903
vt 0.2351 0.8903
vt 0.1854 0.6359
vt 0.2351 0.6359
vt 0.2351 0.3575
vt 0.1854 0.1062
vt 0.2351 0.1062
vt 0.1854 0.7484
vt 0.2351 0.7484
vt 0.2351 0.4959
vt 0.1854 0.4959
vt 0.1854 0.4682
vt 0.2351 0.4682
vt 0.1854 0.2185
vt 0.2351 0.2185
vt 0.1854 0.8617
vt 0.2351 0.8617
vt 0.1854 0.6078
vt 0.2351 0.6078
vt 0.1854 0.3298
vt 0.2351 0.3298
vt 0.1854 0.0779
vt 0.2351 0.0779
vt 0.1854 0.0485
vt 0.2351 0.0485
vt 0.1572 0.3020
vt 0.1389 0.3020
vt 0.1389 0.2742
vt 0.1572 0.2742
vt 0.1572 0.5238
vt 0.1572 0.4959
vt 0.1572 0.8903
vt 0.1572 0.8617
vt 0.1572 0.3298
vt 0.1572 0.8333
vt 0.1572 0.8049
vt 0.1572 0.7766
vt 0.1572 0.2464
vt 0.1572 0.7484
vt 0.1572 0.2185
vt 0.1572 0.7202
vt 0.1572 0.1905
vt 0.1572 0.6921
vt 0.1572 0.1624
vt 0.1572 0.6640
vt 0.1572 0.1343
vt 0.1572 0.6359
vt 0.1572 0.1062
vt 0.1572 0.4682
vt 0.1572 0.6078
vt 0.1572 0.0779
vt 0.1572 0.4406
vt 0.1572 0.5797
vt 0.1572 0.0485
vt 0.1572 0.4129
vt 0.1572 0.5517
vt 0.1572 0.9489
vt 0.1572 0.9192
vt 0.1389 0.8049
vt 0.1389 0.7766
vt 0.1389 0.2464
vt 0.1389 0.7484
vt 0.1389 0.2185
vt 0.1389 0.7202
vt 0.1389 0.1905
vt 0.1389 0.6921
vt 0.1389 0.1624
vt 0.1389 0.6640
vt 0.1389 0.1343
vt 0.1389 0.6359
vt 0.1389 0.1062
vt 0.1389 0.4959
vt 0.1389 0.4682
vt 0.1389 0.6078
vt 0.1389 0.0779
vt 0.1389 0.4406
vt 0.1389 0.5797
vt 0.1389 0.0485
vt 0.1389 0.4129
vt 0.1389 0.5517
vt 0.1389 0.9489
vt 0.1389 0.9192
vt 0.1389 0.3853
vt 0.1389 0.5238
vt 0.1389 0.8903
vt 0.1389 0.3575
vt 0.1389 0.8617
vt 0.1389 0.3298
vt 0.1389 0.8333
vt 0.1109 0.4959
vt 0.1055 0.4959
vt 0.1055 0.4682
vt 0.1109 0.4682
vt 0.1203 0.6359
vt 0.1203 0.6078
vt 0.1203 0.1062
vt 0.1203 0.0779
vt 0.1203 0.5238
vt 0.1203 0.4959
vt 0.1203 0.5797
vt 0.1203 0.0485
vt 0.1203 0.4406
vt 0.1203 0.4129
vt 0.1203 0.5517
vt 0.1203 0.9192
vt 0.1203 0.8903
vt 0.1203 0.3853
vt 0.1109 0.9192
vt 0.1055 0.9192
vt 0.1055 0.8903
vt 0.1109 0.8903
vt 0.1203 0.3575
vt 0.8454 0.4682
vt 0.8508 0.4682
vt 0.8508 0.4959
vt 0.8454 0.4959
vt 0.1203 0.8617
vt 0.1203 0.3298
vt 0.1203 0.4682
vt 0.1203 0.8333
vt 0.1203 0.3020
vt 0.1203 0.8049
vt 0.1203 0.2742
vt 0.1203 0.7766
vt 0.1203 0.2464
vt 0.1203 0.7484
vt 0.1203 0.2185
vt 0.1203 0.7202
vt 0.1203 0.1905
vt 0.1203 0.6921
vt 0.1203 0.1624
vt 0.1203 0.6640
vt 0.1203 0.1343
vt 0.1055 0.8617
vt 0.1109 0.8617
vt 0.1109 0.3575
vt 0.1055 0.3575
vt 0.1055 0.3298
vt 0.1109 0.3298
vt 0.1055 0.8333
vt 0.1109 0.8333
vt 0.1055 0.3020
vt 0.1109 0.3020
vt 0.1055 0.8049
vt 0.1109 0.8049
vt 0.1055 0.2742
vt 0.1109 0.2742
vt 0.1055 0.7766
vt 0.1109 0.7766
vt 0.1055 0.2464
vt 0.1109 0.2464
vt 0.1055 0.7484
vt 0.1109 0.7484
vt 0.1055 0.2185
vt 0.1109 0.2185
vt 0.1055 0.7202
vt 0.1109 0.7202
vt 0.1055 0.1905
vt 0.1109 0.1905
vt 0.1055 0.6921
vt 0.1109 0.6921
vt 0.1055 0.1624
vt 0.1109 0.1624
vt 0.1055 0.6640
vt 0.1109 0.6640
vt 0.1055 0.1343
vt 0.1109 0.1343
vt 0.1055 0.6359
vt 0.1109 0.6359
vt 0.1055 0.1062
vt 0.1109 0.1062
vt 0.1055 0.6078
vt 0.1109 0.6078
vt 0.1055 0.0779
vt 0.1109 0.0779
vt 0.1055 0.5797
vt 0.1109 0.5797
vt 0.1055 0.0485
vt 0.1109 0.0485
vt 0.1109 0.4406
vt 0.1055 0.4406
vt 0.1055 0.4129
vt 0.1109 0.4129
vt 0.1055 0.5517
vt 0.1109 0.5517
vt 0.1109 0.9489
vt 0.1055 0.9489
vt 0.1055 0.3853
vt 0.1109 0.3853
vt 0.1055 0.5238
vt 0.1109 0.5238
vt 0.1203 0.9489
vt 0.4253 0.4682
vt 0.4253 0.4959
vt 0.4253 0.4406
vt 0.4253 0.4129
vt 0.4253 0.3853
vt 0.4253 0.3575
vt 0.4253 0.3298
vt 0.4253 0.3020
vt 0.4253 0.2742
vt 0.4253 0.2464
vt 0.4253 0.2185
vt 0.4253 0.1905
vt 0.4253 0.1624
vt 0.4253 0.1343
vt 0.4253 0.1062
vt 0.4253 0.0779
vt 0.4253 0.0485
vt 0.4253 0.9192
vt 0.4253 0.9489
vt 0.4253 0.8903
vt 0.4253 0.8617
vt 0.4253 0.8333
vt 0.4253 0.8049
vt 0.4253 0.7766
vt 0.4253 0.7484
vt 0.4253 0.7202
vt 0.4253 0.6921
vt 0.4253 0.6640
vt 0.4253 0.6359
vt 0.4253 0.6078
vt 0.4253 0.5797
vt 0.4253 0.5517
vt 0.4253 0.5238
vt 0.8360 0.4406
vt 0.8360 0.1062
vt 0.8360 0.1343
vt 0.8360 0.6359
vt 0.8360 0.6640
vt 0.8360 0.1624
vt 0.8360 0.6921
vt 0.8360 0.1905
vt 0.8360 0.7202
vt 0.8360 0.2185
vt 0.8360 0.7484
vt 0.8360 0.2464
vt 0.8360 0.7766
vt 0.8360 0.2742
vt 0.8360 0.8049
vt 0.8360 0.3020
vt 0.8360 0.8333
vt 0.8360 0.3298
vt 0.8360 0.8617
vt 0.8360 0.3575
vt 0.8360 0.8903
vt 0.8360 0.3853
vt 0.8360 0.9192
vt 0.8360 0.5517
vt 0.8360 0.4129
vt 0.8360 0.9489
vt 0.8360 0.5797
vt 0.8360 0.0485
vt 0.8360 0.0779
vt 0.8360 0.6078
vn -0.9494 0.0000 0.3140
vn -0.9312 0.1852 0.3140
vn -0.9348 0.1859 0.3027
vn -0.9531 0.0000 0.3027
vn 0.6739 0.6739 0.3027
vn 0.7925 0.5295 0.3027
vn 0.7671 0.5126 -0.3858
vn 0.6524 0.6524 -0.3858
vn 0.3633 0.8772 0.3140
vn 0.5275 0.7894 0.3140
vn 0.5295 0.7925 0.3027
vn 0.3647 0.8805 0.3027
vn 0.7894 -0.5275 0.3140
vn 0.6713 -0.6713 0.3140
vn 0.6739 -0.6739 0.3027
vn 0.7925 -0.5295 0.3027
vn -0.6713 -0.6713 0.3140
vn -0.7894 -0.5275 0.3140
vn -0.7925 -0.5295 0.3027
vn -0.6739 -0.6739 0.3027
vn -0.5275 0.7894 0.3140
vn -0.3633 0.8772 0.3140
vn -0.3647 0.8805 0.3027
vn -0.5295 0.7925 0.3027
vn 0.9312 0.1852 0.3140
vn 0.9494 0.0000 0.3140
vn 0.9531 -0.0000 0.3027
vn 0.9348 0.1859 0.3027
vn -0.0000 -0.9494 0.3140
vn -0.1852 -0.9312 0.3140
vn -0.1859 -0.9348 0.3027
vn -0.0000 -0.9531 0.3027
vn -0.8772 0.3633 0.3140
vn -0.8805 0.3647 0.3027
vn 0.6713 0.6713 0.3140
vn 0.5275 -0.7894 0.3140
vn 0.5295 -0.7925 0.3027
vn -0.8772 -0.3633 0.3140
vn -0.8805 -0.3647 0.3027
vn -0.1852 0.9312 0.3140
vn -0.1859 0.9348 0.3027
vn 0.9312 -0.1852 0.3140
vn 0.9348 -0.1859 0.3027
vn -0.3633 -0.8772 0.3140
vn -0.3647 -0.8805 0.3027
vn -0.7894 0.5275 0.3140
vn -0.7925 0.5295 0.3027
vn 0.7894 0.5275 0.3140
vn 0.3633 -0.8772 0.3140
vn 0.3647 -0.8805 0.3027
vn -0.9312 -0.1852 0.3140
vn -0.9348 -0.1859 0.3027
vn 0.0000 0.9494 0.3140
vn 0.1852 0.9312 0.3140
vn 0.1859 0.9348 0.3027
vn 0.0000 0.9531 0.3027
vn 0.8772 -0.3633 0.3140
vn 0.8805 -0.3647 0.3027
vn -0.5275 -0.7894 0.3140
vn -0.5295 -0.7925 0.3027
vn -0.6713 0.6713 0.3140
vn -0.6739 0.6739 0.3027
vn 0.8772 0.3633 0.3140
vn 0.8805 0.3647 0.3027
vn 0.1852 -0.9312 0.3140
vn 0.1859 -0.9348 0.3027
vn 0.9049 0.1800 -0.3858
vn 0.9226 -0.0000 -0.3858
vn 0.3905 0.0000 -0.9206
vn 0.3830 0.0762 -0.9206
vn 0.0000 0.9226 -0.3858
vn -0.1800 0.9049 -0.3858
vn -0.5126 -0.7671 -0.3858
vn -0.3531 -0.8524 -0.3858
vn 0.8524 0.3531 -0.3858
vn -0.6524 -0.6524 -0.3858
vn -0.7671 -0.5126 -0.3858
vn -0.8524 -0.3531 -0.3858
vn 0.9049 -0.1800 -0.3858
vn -0.9049 -0.1800 -0.3858
vn 0.8524 -0.3531 -0.3858
vn -0.9226 0.0000 -0.3858
vn 0.7671 -0.5126 -0.3858
vn -0.9049 0.1800 -0.3858
vn 0.6524 -0.6524 -0.3858
vn -0.8524 0.3531 -0.3858
vn 0.5126 -0.7671 -0.3858
vn -0.7671 0.5126 -0.3858
vn 0.3531 -0.8524 -0.3858
vn 0.1800 0.9049 -0.3858
vn -0.6524 0.6524 -0.3858
vn 0.1800 -0.9049 -0.3858
vn 0.3531 0.8524 -0.3858
vn -0.5126 0.7671 -0.3858
vn -0.0000 -0.9226 -0.3858
vn 0.5126 0.7671 -0.3858
vn -0.3531 0.8524 -0.3858
vn -0.1800 -0.9049 -0.3858
vn 0.0000 0.4598 -0.8880
vn -0.0897 0.4509 -0.8880
vn -0.0762 0.3830 -0.9206
vn 0.0000 0.3905 -0.9206
vn -0.3608 -0.1494 -0.9206
vn -0.3247 -0.2170 -0.9206
vn 0.3830 -0.0762 -0.9206
vn -0.3830 -0.0762 -0.9206
vn 0.3608 -0.1494 -0.9206
vn -0.3905 0.0000 -0.9206
vn 0.3247 -0.2170 -0.9206
vn -0.3830 0.0762 -0.9206
vn 0.2761 -0.2761 -0.9206
vn -0.3608 0.1494 -0.9206
vn 0.2170 -0.3247 -0.9206
vn -0.3247 0.2170 -0.9206
vn 0.1494 -0.3608 -0.9206
vn 0.0762 0.3830 -0.9206
vn -0.2761 0.2761 -0.9206
vn 0.0762 -0.3830 -0.9206
vn 0.1494 0.3608 -0.9206
vn -0.2170 0.3247 -0.9206
vn 0.0000 -0.3905 -0.9206
vn 0.2170 0.3247 -0.9206
vn -0.1494 0.3608 -0.9206
vn -0.0762 -0.3830 -0.9206
vn 0.2761 0.2761 -0.9206
vn -0.1494 -0.3608 -0.9206
vn 0.3247 0.2170 -0.9206
vn -0.2170 -0.3247 -0.9206
vn 0.3608 0.1494 -0.9206
vn -0.2761 -0.2761 -0.9206
vn 0.5318 0.7959 -0.2894
vn 0.5555 0.8314 -0.0162
vn 0.3826 0.9238 -0.0162
vn 0.3663 0.8843 -0.2894
vn 0.8843 0.3663 -0.2894
vn 0.9238 0.3826 -0.0162
vn 0.8314 0.5555 -0.0162
vn 0.7959 0.5318 -0.2894
vn 0.0897 0.4509 -0.8880
vn -0.6768 -0.6768 -0.2894
vn -0.7070 -0.7070 -0.0162
vn -0.5555 -0.8314 -0.0162
vn -0.5318 -0.7959 -0.2894
vn 0.9388 0.1867 -0.2894
vn 0.9807 0.1951 -0.0162
vn -0.7959 -0.5318 -0.2894
vn -0.8314 -0.5555 -0.0162
vn 0.9572 0.0000 -0.2894
vn 0.9999 -0.0000 -0.0162
vn -0.8843 -0.3663 -0.2894
vn -0.9238 -0.3826 -0.0162
vn 0.9388 -0.1867 -0.2894
vn 0.9807 -0.1951 -0.0162
vn -0.9388 -0.1867 -0.2894
vn -0.9807 -0.1951 -0.0162
vn 0.8843 -0.3663 -0.2894
vn 0.9238 -0.3826 -0.0162
vn -0.9572 0.0000 -0.2894
vn -0.9999 0.0000 -0.0162
vn 0.7959 -0.5318 -0.2894
vn 0.8314 -0.5555 -0.0162
vn -0.9388 0.1867 -0.2894
vn -0.9807 0.1951 -0.0162
vn 0.6768 -0.6768 -0.2894
vn 0.7070 -0.7070 -0.0162
vn -0.8843 0.3663 -0.2894
vn -0.9238 0.3826 -0.0162
vn 0.5318 -0.7959 -0.2894
vn 0.5555 -0.8314 -0.0162
vn -0.7959 0.5318 -0.2894
vn -0.8314 0.5555 -0.0162
vn 0.3663 -0.8843 -0.2894
vn 0.3826 -0.9238 -0.0162
vn -0.6768 0.6768 -0.2894
vn -0.7070 0.7070 -0.0162
vn 0.1867 -0.9388 -0.2894
vn 0.1951 -0.9807 -0.0162
vn -0.5318 0.7959 -0.2894
vn -0.5555 0.8314 -0.0162
vn 0.0000 -0.9572 -0.2894
vn 0.0000 -0.9999 -0.0162
vn -0.1867 -0.9388 -0.2894
vn -0.1951 -0.9807 -0.0162
vn -0.3663 0.8843 -0.2894
vn -0.3826 0.9238 -0.0162
vn -0.3826 -0.9238 -0.0162
vn -0.3663 -0.8843 -0.2894
vn 0.6768 0.6768 -0.2894
vn 0.7070 0.7070 -0.0162
vn -0.1867 0.9388 -0.2894
vn -0.1951 0.9807 -0.0162
vn 0.0000 0.9195 -0.3931
vn 0.1794 0.9018 -0.3931
vn 0.3519 0.8495 -0.3931
vn 0.5109 0.7645 -0.3931
vn 0.6502 0.6502 -0.3931
vn 0.7645 0.5109 -0.3931
vn 0.8495 0.3519 -0.3931
vn 0.9018 0.1794 -0.3931
vn 0.9195 0.0000 -0.3931
vn 0.9018 -0.1794 -0.3931
vn 0.8495 -0.3519 -0.3931
vn 0.7645 -0.5109 -0.3931
vn 0.6502 -0.6502 -0.3931
vn 0.5109 -0.7645 -0.3931
vn 0.3519 -0.8495 -0.3931
vn 0.1794 -0.9018 -0.3931
vn 0.0000 -0.9195 -0.3931
vn -0.1794 -0.9018 -0.3931
vn -0.3519 -0.8495 -0.3931
vn -0.5109 -0.7645 -0.3931
vn -0.6502 -0.6502 -0.3931
vn -0.7645 -0.5109 -0.3931
vn -0.8495 -0.3519 -0.3931
vn -0.9018 -0.1794 -0.3931
vn -0.9195 -0.0000 -0.3931
vn -0.9018 0.1794 -0.3931
vn -0.8495 0.3519 -0.3931
vn -0.7645 0.5109 -0.3931
vn -0.6502 0.6502 -0.3931
vn -0.5109 0.7645 -0.3931
vn -0.3519 0.8495 -0.3931
vn -0.1794 0.9018 -0.3931
vn -0.9088 0.1808 -0.3760
vn -0.8561 0.3546 -0.3760
vn 0.6552 -0.6552 -0.3760
vn 0.5148 -0.7704 -0.3760
vn -0.7704 0.5148 -0.3760
vn 0.3546 -0.8561 -0.3760
vn -0.0000 0.9266 -0.3760
vn 0.1808 0.9088 -0.3760
vn -0.6552 0.6552 -0.3760
vn 0.1808 -0.9088 -0.3760
vn 0.3546 0.8561 -0.3760
vn -0.5148 0.7704 -0.3760
vn 0.0000 -0.9266 -0.3760
vn 0.5148 0.7704 -0.3760
vn -0.3546 0.8561 -0.3760
vn -0.1808 -0.9088 -0.3760
vn 0.6552 0.6552 -0.3760
vn -0.1808 0.9088 -0.3760
vn -0.3546 -0.8561 -0.3760
vn 0.7704 0.5148 -0.3760
vn -0.5148 -0.7704 -0.3760
vn 0.8561 0.3546 -0.3760
vn -0.6552 -0.6552 -0.3760
vn 0.9088 0.1808 -0.3760
vn -0.7704 -0.5148 -0.3760
vn 0.9266 0.0000 -0.3760
vn -0.8561 -0.3546 -0.3760
vn 0.9088 -0.1808 -0.3760
vn -0.9088 -0.1808 -0.3760
vn 0.8561 -0.3546 -0.3760
vn -0.9266 0.0000 -0.3760
vn 0.7704 -0.5148 -0.3760
vn 0.9266 -0.0000 0.3760
vn 0.9088 0.1808 0.3760
vn -0.8561 -0.3546 0.3760
vn -0.7704 -0.5148 0.3760
vn 0.9088 -0.1808 0.3760
vn -0.9088 -0.1808 0.3760
vn 0.8561 -0.3546 0.3760
vn -0.9266 0.0000 0.3760
vn 0.7704 -0.5148 0.3760
vn -0.9088 0.1808 0.3760
vn 0.6552 -0.6552 0.3760
vn -0.8561 0.3546 0.3760
vn 0.5148 -0.7704 0.3760
vn -0.7704 0.5148 0.3760
vn 0.3546 -0.8561 0.3760
vn -0.6552 0.6552 0.3760
vn 0.1808 -0.9088 0.3760
vn 0.3546 0.8561 0.3760
vn 0.1808 0.9088 0.3760
vn -0.5148 0.7704 0.3760
vn 0.0000 -0.9266 0.3760
vn 0.5148 0.7704 0.3760
vn -0.3546 0.8561 0.3760
vn -0.1808 -0.9088 0.3760
vn 0.6552 0.6552 0.3760
vn -0.1808 0.9088 0.3760
vn -0.3546 -0.8561 0.3760
vn 0.7704 0.5148 0.3760
vn -0.0000 0.9266 0.3760
vn -0.5148 -0.7704 0.3760
vn 0.8561 0.3546 0.3760
vn -0.6552 -0.6552 0.3760
vn -0.9494 0.0000 -0.3140
vn -0.9531 0.0000 -0.3027
vn -0.9348 0.1859 -0.3027
vn -0.9312 0.1852 -0.3140
vn 0.6739 0.6739 -0.3027
vn 0.6524 0.6524 0.3858
vn 0.7671 0.5126 0.3858
vn 0.7925 0.5295 -0.3027
vn 0.3633 0.8772 -0.3140
vn 0.3647 0.8805 -0.3027
vn 0.5295 0.7925 -0.3027
vn 0.5275 0.7894 -0.3140
vn 0.7894 -0.5275 -0.3140
vn 0.7925 -0.5295 -0.3027
vn 0.6739 -0.6739 -0.3027
vn 0.6713 -0.6713 -0.3140
vn -0.6713 -0.6713 -0.3140
vn -0.6739 -0.6739 -0.3027
vn -0.7925 -0.5295 -0.3027
vn -0.7894 -0.5275 -0.3140
vn -0.5275 0.7894 -0.3140
vn -0.5295 0.7925 -0.3027
vn -0.3647 0.8805 -0.3027
vn -0.3633 0.8772 -0.3140
vn 0.9312 0.1852 -0.3140
vn 0.9348 0.1859 -0.3027
vn 0.9531 -0.0000 -0.3027
vn 0.9494 -0.0000 -0.3140
vn 0.0000 -0.9494 -0.3140
vn 0.0000 -0.9531 -0.3027
vn -0.1859 -0.9348 -0.3027
vn -0.1852 -0.9312 -0.3140
vn -0.8805 0.3647 -0.3027
vn -0.8772 0.3633 -0.3140
vn 0.6713 0.6713 -0.3140
vn 0.5295 -0.7925 -0.3027
vn 0.5275 -0.7894 -0.3140
vn -0.8805 -0.3647 -0.3027
vn -0.8772 -0.3633 -0.3140
vn -0.1859 0.9348 -0.3027
vn -0.1852 0.9312 -0.3140
vn 0.9348 -0.1859 -0.3027
vn 0.9312 -0.1852 -0.3140
vn -0.3647 -0.8805 -0.3027
vn -0.3633 -0.8772 -0.3140
vn -0.7925 0.5295 -0.3027
vn -0.7894 0.5275 -0.3140
vn 0.7894 0.5275 -0.3140
vn 0.3647 -0.8805 -0.3027
vn 0.3633 -0.8772 -0.3140
vn -0.9348 -0.1859 -0.3027
vn -0.9312 -0.1852 -0.3140
vn 0.0000 0.9494 -0.3140
vn 0.0000 0.9531 -0.3027
vn 0.1859 0.9348 -0.3027
vn 0.1852 0.9312 -0.3140
vn 0.8805 -0.3647 -0.3027
vn 0.8772 -0.3633 -0.3140
vn -0.5295 -0.7925 -0.3027
vn -0.5275 -0.7894 -0.3140
vn -0.6739 0.6739 -0.3027
vn -0.6713 0.6713 -0.3140
vn 0.8805 0.3647 -0.3027
vn 0.8772 0.3633 -0.3140
vn 0.1859 -0.9348 -0.3027
vn 0.1852 -0.9312 -0.3140
vn 0.9049 0.1800 0.3858
vn 0.3830 0.0762 0.9206
vn 0.3905 0.0000 0.9206
vn 0.9226 0.0000 0.3858
vn -0.1800 0.9049 0.3858
vn 0.0000 0.9226 0.3858
vn -0.3531 -0.8524 0.3858
vn -0.5126 -0.7671 0.3858
vn 0.8524 0.3531 0.3858
vn -0.6524 -0.6524 0.3858
vn -0.7671 -0.5126 0.3858
vn -0.8524 -0.3531 0.3858
vn 0.9049 -0.1800 0.3858
vn -0.9049 -0.1800 0.3858
vn 0.8524 -0.3531 0.3858
vn -0.9226 0.0000 0.3858
vn 0.7671 -0.5126 0.3858
vn -0.9049 0.1800 0.3858
vn 0.6524 -0.6524 0.3858
vn -0.8524 0.3531 0.3858
vn 0.5126 -0.7671 0.3858
vn -0.7671 0.5126 0.3858
vn 0.3531 -0.8524 0.3858
vn 0.1800 0.9049 0.3858
vn -0.6524 0.6524 0.3858
vn 0.1800 -0.9049 0.3858
vn 0.3531 0.8524 0.3858
vn -0.5126 0.7671 0.3858
vn 0.0000 -0.9226 0.3858
vn 0.5126 0.7671 0.3858
vn -0.3531 0.8524 0.3858
vn -0.1800 -0.9049 0.3858
vn -0.3247 -0.2170 0.9206
vn -0.3608 -0.1494 0.9206
vn 0.3830 -0.0762 0.9206
vn -0.3830 -0.0762 0.9206
vn 0.3608 -0.1494 0.9206
vn -0.3905 0.0000 0.9206
vn 0.3247 -0.2170 0.9206
vn -0.3830 0.0762 0.9206
vn 0.2761 -0.2761 0.9206
vn -0.3608 0.1494 0.9206
vn 0.2170 -0.3247 0.9206
vn -0.3247 0.2170 0.9206
vn 0.1494 -0.3608 0.9206
vn 0.0000 0.3905 0.9206
vn 0.0762 0.3830 0.9206
vn -0.2761 0.2761 0.9206
vn 0.0762 -0.3830 0.9206
vn 0.1494 0.3608 0.9206
vn -0.2170 0.3247 0.9206
vn 0.0000 -0.3905 0.9206
vn 0.2170 0.3247 0.9206
vn -0.1494 0.3608 0.9206
vn -0.0762 -0.3830 0.9206
vn 0.2761 0.2761 0.9206
vn -0.0762 0.3830 0.9206
vn -0.1494 -0.3608 0.9206
vn 0.3247 0.2170 0.9206
vn -0.2170 -0.3247 0.9206
vn 0.3608 0.1494 0.9206
vn -0.2761 -0.2761 0.9206
vn 0.0000 0.9572 0.2894
vn 0.0000 0.9999 0.0162
vn 0.1951 0.9807 0.0162
vn 0.1867 0.9388 0.2894
vn -0.3823 0.2554 0.8880
vn -0.3251 0.3251 0.8880
vn 0.1759 -0.4248 0.8880
vn 0.0897 -0.4509 0.8880
vn -0.0897 0.4509 0.8880
vn 0.0000 0.4598 0.8880
vn -0.2554 0.3823 0.8880
vn -0.0000 -0.4598 0.8880
vn 0.1759 0.4248 0.8880
vn 0.2554 0.3823 0.8880
vn -0.1759 0.4248 0.8880
vn -0.0897 -0.4509 0.8880
vn -0.1759 -0.4248 0.8880
vn 0.3251 0.3251 0.8880
vn -0.1867 -0.9388 0.2894
vn -0.1951 -0.9807 0.0162
vn -0.3826 -0.9238 0.0162
vn -0.3663 -0.8843 0.2894
vn 0.3823 0.2554 0.8880
vn 0.1867 0.9388 -0.2894
vn 0.1951 0.9807 -0.0162
vn 0.0000 0.9999 -0.0162
vn 0.0000 0.9572 -0.2894
vn -0.2554 -0.3823 0.8880
vn 0.4248 0.1759 0.8880
vn 0.0897 0.4509 0.8880
vn -0.3251 -0.3251 0.8880
vn 0.4509 0.0897 0.8880
vn -0.3823 -0.2554 0.8880
vn 0.4598 0.0000 0.8880
vn -0.4248 -0.1759 0.8880
vn 0.4509 -0.0897 0.8880
vn -0.4509 -0.0897 0.8880
vn 0.4248 -0.1759 0.8880
vn -0.4598 0.0000 0.8880
vn 0.3823 -0.2554 0.8880
vn -0.4509 0.0897 0.8880
vn 0.3251 -0.3251 0.8880
vn -0.4248 0.1759 0.8880
vn 0.2554 -0.3823 0.8880
vn -0.5555 -0.8314 0.0162
vn -0.5318 -0.7959 0.2894
vn 0.7959 0.5318 0.2894
vn 0.8314 0.5555 0.0162
vn 0.9238 0.3826 0.0162
vn 0.8843 0.3663 0.2894
vn -0.7070 -0.7070 0.0162
vn -0.6768 -0.6768 0.2894
vn 0.9807 0.1951 0.0162
vn 0.9388 0.1867 0.2894
vn -0.8314 -0.5555 0.0162
vn -0.7959 -0.5318 0.2894
vn 0.9999 -0.0000 0.0162
vn 0.9572 -0.0000 0.2894
vn -0.9238 -0.3826 0.0162
vn -0.8843 -0.3663 0.2894
vn 0.9807 -0.1951 0.0162
vn 0.9388 -0.1867 0.2894
vn -0.9807 -0.1951 0.0162
vn -0.9388 -0.1867 0.2894
vn 0.9238 -0.3826 0.0162
vn 0.8843 -0.3663 0.2894
vn -0.9999 0.0000 0.0162
vn -0.9572 0.0000 0.2894
vn 0.8314 -0.5555 0.0162
vn 0.7959 -0.5318 0.2894
vn -0.9807 0.1951 0.0162
vn -0.9388 0.1867 0.2894
vn 0.7070 -0.7070 0.0162
vn 0.6768 -0.6768 0.2894
vn -0.9238 0.3826 0.0162
vn -0.8843 0.3663 0.2894
vn 0.5555 -0.8314 0.0162
vn 0.5318 -0.7959 0.2894
vn -0.8314 0.5555 0.0162
vn -0.7959 0.5318 0.2894
vn 0.3826 -0.9238 0.0162
vn 0.3663 -0.8843 0.2894
vn -0.7070 0.7070 0.0162
vn -0.6768 0.6768 0.2894
vn 0.1951 -0.9807 0.0162
vn 0.1867 -0.9388 0.2894
vn -0.5555 0.8314 0.0162
vn -0.5318 0.7959 0.2894
vn 0.0000 -0.9999 0.0162
vn -0.0000 -0.9572 0.2894
vn 0.3663 0.8843 0.2894
vn 0.3826 0.9238 0.0162
vn 0.5555 0.8314 0.0162
vn 0.5318 0.7959 0.2894
vn -0.3826 0.9238 0.0162
vn -0.3663 0.8843 0.2894
vn 0.7070 0.7070 0.0162
vn 0.6768 0.6768 0.2894
vn -0.1951 0.9807 0.0162
vn -0.1867 0.9388 0.2894
vn 0.1794 0.9018 0.3931
vn 0.0000 0.9195 0.3931
vn 0.3519 0.8495 0.3931
vn 0.5109 0.7645 0.3931
vn 0.6502 0.6502 0.3931
vn 0.7645 0.5109 0.3931
vn 0.8495 0.3519 0.3931
vn 0.9018 0.1794 0.3931
vn 0.9195 -0.0000 0.3931
vn 0.9018 -0.1794 0.3931
vn 0.8495 -0.3519 0.3931
vn 0.7645 -0.5109 0.3931
vn 0.6502 -0.6502 0.3931
vn 0.5109 -0.7645 0.3931
vn 0.3519 -0.8495 0.3931
vn 0.1794 -0.9018 0.3931
vn 0.0000 -0.9195 0.3931
vn -0.1794 -0.9018 0.3931
vn -0.3519 -0.8495 0.3931
vn -0.5109 -0.7645 0.3931
vn -0.6502 -0.6502 0.3931
vn -0.7645 -0.5109 0.3931
vn -0.8495 -0.3519 0.3931
vn -0.9018 -0.1794 0.3931
vn -0.9195 -0.0000 0.3931
vn -0.9018 0.1794 0.3931
vn -0.8495 0.3519 0.3931
vn -0.7645 0.5109 0.3931
vn -0.6502 0.6502 0.3931
vn -0.5109 0.7645 0.3931
vn -0.3519 0.8495 0.3931
vn -0.1794 0.9018 0.3931
vn 0.1759 0.4248 -0.8880
vn 0.1759 -0.4248 -0.8880
vn 0.2554 -0.3823 -0.8880
vn -0.3823 0.2554 -0.8880
vn -0.4248 0.1759 -0.8880
vn 0.3251 -0.3251 -0.8880
vn -0.4509 0.0897 -0.8880
vn 0.3823 -0.2554 -0.8880
vn -0.4598 0.0000 -0.8880
vn 0.4248 -0.1759 -0.8880
vn -0.4509 -0.0897 -0.8880
vn 0.4509 -0.0897 -0.8880
vn -0.4248 -0.1759 -0.8880
vn 0.4598 0.0000 -0.8880
vn -0.3823 -0.2554 -0.8880
vn 0.4509 0.0897 -0.8880
vn -0.3251 -0.3251 -0.8880
vn 0.4248 0.1759 -0.8880
vn -0.2554 -0.3823 -0.8880
vn 0.3823 0.2554 -0.8880
vn -0.1759 -0.4248 -0.8880
vn 0.3251 0.3251 -0.8880
vn -0.0897 -0.4509 -0.8880
vn -0.1759 0.4248 -0.8880
vn 0.2554 0.3823 -0.8880
vn 0.0000 -0.4598 -0.8880
vn -0.2554 0.3823 -0.8880
vn 0.0897 -0.4509 -0.8880
vn -0.3251 0.3251 -0.8880
usemtl None
s 1
f 1/1/1 2/2/2 3/3/3 4/4/4
f 5/5/5 6/6/6 7/7/7 8/8/8
f 9/9/9 10/10/10 11/11/11 12/12/12
f 13/13/13 14/14/14 15/15/15 16/16/16
f 17/17/17 18/18/18 19/19/19 20/20/20
f 21/21/21 22/22/22 23/23/23 24/24/24
f 25/25/25 26/26/26 27/27/27 28/28/28
f 29/29/29 30/30/30 31/31/31 32/32/32
f 2/2/2 33/33/33 34/34/34 3/3/3
f 10/10/10 35/35/35 5/5/5 11/11/11
f 14/14/14 36/36/36 37/37/37 15/15/15
f 18/18/18 38/38/38 39/39/39 19/19/19
f 22/22/22 40/40/40 41/41/41 23/23/23
f 26/26/26 42/42/42 43/43/43 27/27/27
f 30/30/30 44/44/44 45/45/45 31/31/31
f 33/33/33 46/46/46 47/47/47 34/34/34
f 35/35/35 48/48/48 6/6/6 5/5/5
f 36/36/36 49/49/49 50/50/50 37/37/37
f 38/38/38 51/51/51 52/52/52 39/39/39
f 53/53/53 54/54/54 55/55/55 56/56/56
f 40/40/40 53/53/53 56/56/56 41/41/41
f 42/42/42 57/57/57 58/58/58 43/43/43
f 44/44/44 59/59/59 60/60/60 45/45/45
f 46/46/46 61/61/61 62/62/62 47/47/47
f 48/48/48 63/63/63 64/64/64 6/6/6
f 49/49/49 65/65/65 66/66/66 50/50/50
f 51/51/51 1/1/1 4/4/4 52/52/52
f 54/54/54 9/9/9 12/12/12 55/55/55
f 57/57/57 13/13/13 16/16/16 58/58/58
f 59/59/59 17/17/17 20/20/20 60/60/60
f 61/61/61 21/21/21 24/24/24 62/62/62
f 63/63/63 25/25/25 28/28/28 64/64/64
f 65/65/65 29/67/29 32/68/32 66/66/66
f 67/69/67 68/70/68 69/71/69 70/72/70
f 41/41/41 56/56/56 71/73/71 72/74/72
f 45/45/45 60/60/60 73/75/73 74/76/74
f 6/6/6 64/64/64 75/77/75 7/7/7
f 60/60/60 20/20/20 76/78/76 73/75/73
f 64/64/64 28/28/28 67/69/67 75/77/75
f 20/20/20 19/19/19 77/79/77 76/78/76
f 28/28/28 27/27/27 68/70/68 67/69/67
f 19/19/19 39/39/39 78/80/78 77/79/77
f 27/27/27 43/43/43 79/81/79 68/70/68
f 39/39/39 52/52/52 80/82/80 78/80/78
f 43/43/43 58/58/58 81/83/81 79/81/79
f 52/52/52 4/4/4 82/84/82 80/82/80
f 58/58/58 16/16/16 83/85/83 81/83/81
f 4/4/4 3/3/3 84/86/84 82/84/82
f 16/16/16 15/15/15 85/87/85 83/85/83
f 3/3/3 34/34/34 86/88/86 84/86/84
f 15/15/15 37/37/37 87/89/87 85/87/85
f 34/34/34 47/47/47 88/90/88 86/88/86
f 37/37/37 50/50/50 89/91/89 87/89/87
f 56/56/56 55/55/55 90/92/90 71/73/71
f 47/47/47 62/62/62 91/93/91 88/90/88
f 50/50/50 66/66/66 92/94/92 89/91/89
f 55/55/55 12/12/12 93/95/93 90/92/90
f 62/62/62 24/24/24 94/96/94 91/93/91
f 66/66/66 32/68/32 95/97/95 92/94/92
f 12/12/12 11/11/11 96/98/96 93/95/93
f 24/24/24 23/23/23 97/99/97 94/96/94
f 32/32/32 31/31/31 98/100/98 95/101/95
f 11/11/11 5/5/5 8/8/8 96/98/96
f 23/23/23 41/41/41 72/74/72 97/99/97
f 31/31/31 45/45/45 74/76/74 98/100/98
f 99/102/99 100/103/100 101/104/101 102/105/102
f 77/79/77 78/80/78 103/106/103 104/107/104
f 68/70/68 79/81/79 105/108/105 69/71/69
f 78/80/78 80/82/80 106/109/106 103/106/103
f 79/81/79 81/83/81 107/110/107 105/108/105
f 80/82/80 82/84/82 108/111/108 106/109/106
f 81/83/81 83/85/83 109/112/109 107/110/107
f 82/84/82 84/86/84 110/113/110 108/111/108
f 83/85/83 85/87/85 111/114/111 109/112/109
f 84/86/84 86/88/86 112/115/112 110/113/110
f 85/87/85 87/89/87 113/116/113 111/114/111
f 86/88/86 88/90/88 114/117/114 112/115/112
f 87/89/87 89/91/89 115/118/115 113/116/113
f 71/73/71 90/92/90 116/119/116 102/105/102
f 88/90/88 91/93/91 117/120/117 114/117/114
f 89/91/89 92/94/92 118/121/118 115/118/115
f 90/92/90 93/95/93 119/122/119 116/119/116
f 91/93/91 94/96/94 120/123/120 117/120/117
f 92/94/92 95/97/95 121/124/121 118/121/118
f 93/95/93 96/98/96 122/125/122 119/122/119
f 94/96/94 97/99/97 123/126/123 120/123/120
f 95/101/95 98/100/98 124/127/124 121/128/121
f 96/98/96 8/8/8 125/129/125 122/125/122
f 97/99/97 72/74/72 101/104/101 123/126/123
f 98/100/98 74/76/74 126/130/126 124/127/124
f 8/8/8 7/7/7 127/131/127 125/129/125
f 72/74/72 71/73/71 102/105/102 101/104/101
f 74/76/74 73/75/73 128/132/128 126/130/126
f 7/7/7 75/77/75 129/133/129 127/131/127
f 73/75/73 76/78/76 130/134/130 128/132/128
f 75/77/75 67/69/67 70/72/70 129/133/129
f 76/78/76 77/79/77 104/107/104 130/134/130
f 131/135/131 132/136/132 133/137/133 134/138/134
f 135/139/135 136/140/136 137/141/137 138/142/138
f 139/143/139 99/102/99 102/105/102 116/119/116
f 140/144/140 141/145/141 142/146/142 143/147/143
f 144/148/144 145/149/145 136/140/136 135/139/135
f 146/150/146 147/151/147 141/145/141 140/144/140
f 148/152/148 149/153/149 145/149/145 144/148/144
f 150/154/150 151/155/151 147/151/147 146/150/146
f 152/156/152 153/157/153 149/153/149 148/152/148
f 154/158/154 155/159/155 151/155/151 150/154/150
f 156/160/156 157/161/157 153/157/153 152/156/152
f 158/162/158 159/163/159 155/159/155 154/158/154
f 160/164/160 161/165/161 157/161/157 156/160/156
f 162/166/162 163/167/163 159/163/159 158/162/158
f 164/168/164 165/169/165 161/165/161 160/164/160
f 166/170/166 167/171/167 163/167/163 162/166/162
f 168/172/168 169/173/169 165/169/165 164/168/164
f 170/174/170 171/175/171 167/171/167 166/170/166
f 172/176/172 173/177/173 169/173/169 168/172/168
f 174/178/174 175/179/175 171/175/171 170/174/170
f 176/180/176 177/181/177 173/177/173 172/176/172
f 178/182/178 179/183/179 175/179/175 174/178/174
f 180/184/180 181/185/181 177/181/177 176/180/176
f 182/186/182 183/187/183 181/188/181 180/189/180
f 184/190/184 185/191/185 179/183/179 178/182/178
f 143/147/143 142/146/142 186/192/186 187/193/187
f 188/194/188 189/195/189 132/136/132 131/135/131
f 190/196/190 191/197/191 185/191/185 184/190/184
f 187/193/187 186/192/186 183/187/183 182/186/182
f 138/142/138 137/141/137 189/195/189 188/194/188
f 53/53/53 192/198/192 193/199/193 54/54/54
f 54/54/54 193/199/193 194/200/194 9/9/9
f 9/9/9 194/200/194 195/201/195 10/10/10
f 10/10/10 195/201/195 196/202/196 35/35/35
f 35/35/35 196/202/196 197/203/197 48/48/48
f 48/48/48 197/203/197 198/204/198 63/63/63
f 63/63/63 198/204/198 199/205/199 25/25/25
f 25/25/25 199/205/199 200/206/200 26/26/26
f 26/26/26 200/206/200 201/207/201 42/42/42
f 42/42/42 201/207/201 202/208/202 57/57/57
f 57/57/57 202/208/202 203/209/203 13/13/13
f 13/13/13 203/209/203 204/210/204 14/14/14
f 14/14/14 204/210/204 205/211/205 36/36/36
f 36/36/36 205/211/205 206/212/206 49/49/49
f 49/49/49 206/212/206 207/213/207 65/65/65
f 65/65/65 207/213/207 208/214/208 29/67/29
f 29/29/29 208/215/208 209/216/209 30/30/30
f 30/30/30 209/216/209 210/217/210 44/44/44
f 44/44/44 210/217/210 211/218/211 59/59/59
f 59/59/59 211/218/211 212/219/212 17/17/17
f 17/17/17 212/219/212 213/220/213 18/18/18
f 18/18/18 213/220/213 214/221/214 38/38/38
f 38/38/38 214/221/214 215/222/215 51/51/51
f 51/51/51 215/222/215 216/223/216 1/1/1
f 1/1/1 216/223/216 217/224/217 2/2/2
f 2/2/2 217/224/217 218/225/218 33/33/33
f 33/33/33 218/225/218 219/226/219 46/46/46
f 46/46/46 219/226/219 220/227/220 61/61/61
f 61/61/61 220/227/220 221/228/221 21/21/21
f 21/21/21 221/228/221 222/229/222 22/22/22
f 22/22/22 222/229/222 223/230/223 40/40/40
f 40/40/40 223/230/223 192/198/192 53/53/53
f 218/225/218 217/224/217 224/231/224 225/232/225
f 205/211/205 204/210/204 226/233/226 227/234/227
f 219/226/219 218/225/218 225/232/225 228/235/228
f 206/212/206 205/211/205 227/234/227 229/236/229
f 193/199/193 192/198/192 230/237/230 231/238/231
f 220/227/220 219/226/219 228/235/228 232/239/232
f 207/213/207 206/212/206 229/236/229 233/240/233
f 194/200/194 193/199/193 231/238/231 234/241/234
f 221/228/221 220/227/220 232/239/232 235/242/235
f 208/214/208 207/213/207 233/240/233 236/243/236
f 195/201/195 194/200/194 234/241/234 237/244/237
f 222/229/222 221/228/221 235/242/235 238/245/238
f 209/216/209 208/215/208 236/246/236 239/247/239
f 196/202/196 195/201/195 237/244/237 240/248/240
f 223/230/223 222/229/222 238/245/238 241/249/241
f 210/217/210 209/216/209 239/247/239 242/250/242
f 197/203/197 196/202/196 240/248/240 243/251/243
f 192/198/192 223/230/223 241/249/241 230/237/230
f 211/218/211 210/217/210 242/250/242 244/252/244
f 198/204/198 197/203/197 243/251/243 245/253/245
f 212/219/212 211/218/211 244/252/244 246/254/246
f 199/205/199 198/204/198 245/253/245 247/255/247
f 213/220/213 212/219/212 246/254/246 248/256/248
f 200/206/200 199/205/199 247/255/247 249/257/249
f 214/221/214 213/220/213 248/256/248 250/258/250
f 201/207/201 200/206/200 249/257/249 251/259/251
f 215/222/215 214/221/214 250/258/250 252/260/252
f 202/208/202 201/207/201 251/259/251 253/261/253
f 216/223/216 215/222/215 252/260/252 254/262/254
f 203/209/203 202/208/202 253/261/253 255/263/255
f 217/224/217 216/223/216 254/262/254 224/231/224
f 204/210/204 203/209/203 255/263/255 226/233/226
f 256/264/256 249/257/249 247/255/247 257/265/257
f 258/266/258 250/258/250 248/256/248 259/267/259
f 260/268/260 251/259/251 249/257/249 256/264/256
f 261/269/261 252/260/252 250/258/250 258/266/258
f 262/270/262 253/261/253 251/259/251 260/268/260
f 263/271/263 254/262/254 252/260/252 261/269/261
f 264/272/264 255/263/255 253/261/253 262/270/262
f 265/273/265 224/231/224 254/262/254 263/271/263
f 266/274/266 226/233/226 255/263/255 264/272/264
f 267/275/267 225/232/225 224/231/224 265/273/265
f 268/276/268 227/234/227 226/233/226 266/274/266
f 269/277/269 228/235/228 225/232/225 267/275/267
f 270/278/270 229/236/229 227/234/227 268/276/268
f 271/279/271 232/239/232 228/235/228 269/277/269
f 272/280/272 233/240/233 229/236/229 270/278/270
f 273/281/273 234/241/234 231/238/231 274/282/274
f 275/283/275 235/242/235 232/239/232 271/279/271
f 276/284/276 236/243/236 233/240/233 272/280/272
f 277/285/277 237/244/237 234/241/234 273/281/273
f 278/286/278 238/245/238 235/242/235 275/283/275
f 279/287/279 239/247/239 236/246/236 276/288/276
f 280/289/280 240/248/240 237/244/237 277/285/277
f 281/290/281 241/249/241 238/245/238 278/286/278
f 282/291/282 242/250/242 239/247/239 279/287/279
f 283/292/283 243/251/243 240/248/240 280/289/280
f 284/293/284 230/237/230 241/249/241 281/290/281
f 285/294/285 244/252/244 242/250/242 282/291/282
f 286/295/286 245/253/245 243/251/243 283/292/283
f 287/296/287 246/254/246 244/252/244 285/294/285
f 257/265/257 247/255/247 245/253/245 286/295/286
f 259/267/259 248/256/248 246/254/246 287/296/287
f 288/297/288 289/298/289 290/299/290 291/300/291
f 292/301/292 293/302/293 294/303/294 295/304/295
f 296/305/296 297/306/297 298/307/298 299/308/299
f 300/309/300 301/310/301 302/311/302 303/312/303
f 304/313/304 305/314/305 306/315/306 307/316/307
f 308/317/308 309/318/309 310/319/310 311/320/311
f 312/321/312 313/322/313 314/323/314 315/324/315
f 316/325/316 317/326/317 318/327/318 319/328/319
f 291/300/291 290/299/290 320/329/320 321/330/321
f 299/308/299 298/307/298 292/301/292 322/331/322
f 303/312/303 302/311/302 323/332/323 324/333/324
f 307/316/307 306/315/306 325/334/325 326/335/326
f 311/320/311 310/319/310 327/336/327 328/337/328
f 315/324/315 314/323/314 329/338/329 330/339/330
f 319/328/319 318/327/318 331/340/331 332/341/332
f 321/330/321 320/329/320 333/342/333 334/343/334
f 322/331/322 292/301/292 295/304/295 335/344/335
f 324/333/324 323/332/323 336/345/336 337/346/337
f 326/335/326 325/334/325 338/347/338 339/348/339
f 340/349/340 341/350/341 342/351/342 343/352/343
f 328/337/328 327/336/327 341/350/341 340/349/340
f 330/339/330 329/338/329 344/353/344 345/354/345
f 332/341/332 331/340/331 346/355/346 347/356/347
f 334/343/334 333/342/333 348/357/348 349/358/349
f 335/344/335 295/304/295 350/359/350 351/360/351
f 337/346/337 336/345/336 352/361/352 353/362/353
f 339/348/339 338/347/338 289/298/289 288/297/288
f 343/352/343 342/351/342 297/306/297 296/305/296
f 345/354/345 344/353/344 301/310/301 300/309/300
f 347/356/347 346/355/346 305/314/305 304/313/304
f 349/358/349 348/357/348 309/318/309 308/317/308
f 351/360/351 350/359/350 313/322/313 312/321/312
f 353/362/353 352/361/352 317/363/317 316/364/316
f 354/365/354 355/366/355 356/367/356 357/368/357
f 327/336/327 358/369/358 359/370/359 341/350/341
f 331/340/331 360/371/360 361/372/361 346/355/346
f 295/304/295 294/303/294 362/373/362 350/359/350
f 346/355/346 361/372/361 363/374/363 305/314/305
f 350/359/350 362/373/362 354/365/354 313/322/313
f 305/314/305 363/374/363 364/375/364 306/315/306
f 313/322/313 354/365/354 357/368/357 314/323/314
f 306/315/306 364/375/364 365/376/365 325/334/325
f 314/323/314 357/368/357 366/377/366 329/338/329
f 325/334/325 365/376/365 367/378/367 338/347/338
f 329/338/329 366/377/366 368/379/368 344/353/344
f 338/347/338 367/378/367 369/380/369 289/298/289
f 344/353/344 368/379/368 370/381/370 301/310/301
f 289/298/289 369/380/369 371/382/371 290/299/290
f 301/310/301 370/381/370 372/383/372 302/311/302
f 290/299/290 371/382/371 373/384/373 320/329/320
f 302/311/302 372/383/372 374/385/374 323/332/323
f 320/329/320 373/384/373 375/386/375 333/342/333
f 323/332/323 374/385/374 376/387/376 336/345/336
f 341/350/341 359/370/359 377/388/377 342/351/342
f 333/342/333 375/386/375 378/389/378 348/357/348
f 336/345/336 376/387/376 379/390/379 352/361/352
f 342/351/342 377/388/377 380/391/380 297/306/297
f 348/357/348 378/389/378 381/392/381 309/318/309
f 352/361/352 379/390/379 382/393/382 317/363/317
f 297/306/297 380/391/380 383/394/383 298/307/298
f 309/318/309 381/392/381 384/395/384 310/319/310
f 317/326/317 382/396/382 385/397/385 318/327/318
f 298/307/298 383/394/383 293/302/293 292/301/292
f 310/319/310 384/395/384 358/369/358 327/336/327
f 318/327/318 385/397/385 360/371/360 331/340/331
f 364/375/364 386/398/386 387/399/387 365/376/365
f 357/368/357 356/367/356 388/400/388 366/377/366
f 365/376/365 387/399/387 389/401/389 367/378/367
f 366/377/366 388/400/388 390/402/390 368/379/368
f 367/378/367 389/401/389 391/403/391 369/380/369
f 368/379/368 390/402/390 392/404/392 370/381/370
f 369/380/369 391/403/391 393/405/393 371/382/371
f 370/381/370 392/404/392 394/406/394 372/383/372
f 371/382/371 393/405/393 395/407/395 373/384/373
f 372/383/372 394/406/394 396/408/396 374/385/374
f 373/384/373 395/407/395 397/409/397 375/386/375
f 374/385/374 396/408/396 398/410/398 376/387/376
f 359/370/359 399/411/399 400/412/400 377/388/377
f 375/386/375 397/409/397 401/413/401 378/389/378
f 376/387/376 398/410/398 402/414/402 379/390/379
f 377/388/377 400/412/400 403/415/403 380/391/380
f 378/389/378 401/413/401 404/416/404 381/392/381
f 379/390/379 402/414/402 405/417/405 382/393/382
f 380/391/380 403/415/403 406/418/406 383/394/383
f 381/392/381 404/416/404 407/419/407 384/395/384
f 382/396/382 405/420/405 408/421/408 385/397/385
f 383/394/383 406/418/406 409/422/409 293/302/293
f 384/395/384 407/419/407 410/423/410 358/369/358
f 385/397/385 408/421/408 411/424/411 360/371/360
f 293/302/293 409/422/409 412/425/412 294/303/294
f 358/369/358 410/423/410 399/411/399 359/370/359
f 360/371/360 411/424/411 413/426/413 361/372/361
f 294/303/294 412/425/412 414/427/414 362/373/362
f 361/372/361 413/426/413 415/428/415 363/374/363
f 362/373/362 414/427/414 355/366/355 354/365/354
f 363/374/363 415/428/415 386/398/386 364/375/364
f 416/429/416 417/430/417 418/431/418 419/432/419
f 420/433/420 421/434/421 401/413/401 397/409/397
f 422/435/422 423/436/423 402/414/402 398/410/398
f 424/437/424 425/438/425 399/411/399 410/423/410
f 421/434/421 426/439/426 404/416/404 401/413/401
f 423/436/423 427/440/427 405/417/405 402/414/402
f 428/441/428 429/442/429 406/418/406 403/415/403
f 426/439/426 430/443/430 407/419/407 404/416/404
f 431/444/431 432/445/432 411/424/411 408/421/408
f 429/442/429 433/446/433 409/422/409 406/418/406
f 430/443/430 424/437/424 410/423/410 407/419/407
f 434/447/434 435/448/435 436/449/436 437/450/437
f 433/446/433 438/451/438 412/425/412 409/422/409
f 439/452/439 440/453/440 441/454/441 442/455/442
f 432/445/432 443/456/443 413/426/413 411/424/411
f 438/451/438 444/457/444 414/427/414 412/425/412
f 445/458/445 428/441/428 403/415/403 400/412/400
f 443/456/443 446/459/446 415/428/415 413/426/413
f 444/457/444 447/460/447 355/366/355 414/427/414
f 446/459/446 448/461/448 386/398/386 415/428/415
f 447/460/447 449/462/449 356/367/356 355/366/355
f 448/461/448 450/463/450 387/399/387 386/398/386
f 449/462/449 451/464/451 388/400/388 356/367/356
f 450/463/450 452/465/452 389/401/389 387/399/387
f 451/464/451 453/466/453 390/402/390 388/400/388
f 452/465/452 454/467/454 391/403/391 389/401/389
f 453/466/453 455/468/455 392/404/392 390/402/390
f 454/467/454 456/469/456 393/405/393 391/403/391
f 455/468/455 457/470/457 394/406/394 392/404/392
f 456/469/456 458/471/458 395/407/395 393/405/393
f 457/470/457 459/472/459 396/408/396 394/406/394
f 458/471/458 420/433/420 397/409/397 395/407/395
f 437/450/437 436/449/436 460/473/460 461/474/461
f 462/475/462 463/476/463 464/477/464 465/478/465
f 461/474/461 460/473/460 466/479/466 467/480/467
f 465/478/465 464/477/464 468/481/468 469/482/469
f 467/480/467 466/479/466 470/483/470 471/484/471
f 469/482/469 468/481/468 472/485/472 473/486/473
f 471/484/471 470/483/470 474/487/474 475/488/475
f 473/486/473 472/485/472 476/489/476 477/490/477
f 475/488/475 474/487/474 478/491/478 479/492/479
f 477/490/477 476/489/476 480/493/480 481/494/481
f 479/492/479 478/491/478 482/495/482 483/496/483
f 481/494/481 480/493/480 484/497/484 485/498/485
f 483/496/483 482/495/482 486/499/486 487/500/487
f 485/498/485 484/497/484 488/501/488 489/502/489
f 487/500/487 486/499/486 490/503/490 491/504/491
f 489/502/489 488/501/488 492/505/492 493/506/493
f 491/504/491 490/503/490 494/507/494 495/508/495
f 493/506/493 492/505/492 496/509/496 497/510/497
f 495/508/495 494/507/494 498/511/498 499/512/499
f 497/510/497 496/509/496 500/513/500 501/514/501
f 499/512/499 498/511/498 502/515/502 503/516/503
f 501/514/501 500/513/500 504/517/504 505/518/505
f 506/519/506 507/520/507 508/521/508 509/522/509
f 503/516/503 502/515/502 510/523/510 511/524/511
f 505/525/505 504/526/504 435/448/435 434/447/434
f 509/522/509 508/521/508 512/527/512 513/528/513
f 511/524/511 510/523/510 514/529/514 515/530/515
f 427/531/427 431/444/431 408/421/408 405/420/405
f 513/528/513 512/527/512 463/476/463 462/475/462
f 340/349/340 343/352/343 516/532/516 517/533/517
f 343/352/343 296/305/296 518/534/518 516/532/516
f 296/305/296 299/308/299 519/535/519 518/534/518
f 299/308/299 322/331/322 520/536/520 519/535/519
f 322/331/322 335/344/335 521/537/521 520/536/520
f 335/344/335 351/360/351 522/538/522 521/537/521
f 351/360/351 312/321/312 523/539/523 522/538/522
f 312/321/312 315/324/315 524/540/524 523/539/523
f 315/324/315 330/339/330 525/541/525 524/540/524
f 330/339/330 345/354/345 526/542/526 525/541/525
f 345/354/345 300/309/300 527/543/527 526/542/526
f 300/309/300 303/312/303 528/544/528 527/543/527
f 303/312/303 324/333/324 529/545/529 528/544/528
f 324/333/324 337/346/337 530/546/530 529/545/529
f 337/346/337 353/362/353 531/547/531 530/546/530
f 353/362/353 316/364/316 532/548/532 531/547/531
f 316/325/316 319/328/319 533/549/533 532/550/532
f 319/328/319 332/341/332 534/551/534 533/549/533
f 332/341/332 347/356/347 535/552/535 534/551/534
f 347/356/347 304/313/304 536/553/536 535/552/535
f 304/313/304 307/316/307 537/554/537 536/553/536
f 307/316/307 326/335/326 538/555/538 537/554/537
f 326/335/326 339/348/339 539/556/539 538/555/538
f 339/348/339 288/297/288 540/557/540 539/556/539
f 288/297/288 291/300/291 541/558/541 540/557/540
f 291/300/291 321/330/321 542/559/542 541/558/541
f 321/330/321 334/343/334 543/560/543 542/559/542
f 334/343/334 349/358/349 544/561/544 543/560/543
f 349/358/349 308/317/308 545/562/545 544/561/544
f 308/317/308 311/320/311 546/563/546 545/562/545
f 311/320/311 328/337/328 547/564/547 546/563/546
f 328/337/328 340/349/340 517/533/517 547/564/547
f 542/559/542 267/275/267 265/273/265 541/558/541
f 529/545/529 268/276/268 266/274/266 528/544/528
f 543/560/543 269/277/269 267/275/267 542/559/542
f 530/546/530 270/278/270 268/276/268 529/545/529
f 516/532/516 274/282/274 284/293/284 517/533/517
f 544/561/544 271/279/271 269/277/269 543/560/543
f 531/547/531 272/280/272 270/278/270 530/546/530
f 518/534/518 273/281/273 274/282/274 516/532/516
f 545/562/545 275/283/275 271/279/271 544/561/544
f 532/548/532 276/284/276 272/280/272 531/547/531
f 519/535/519 277/285/277 273/281/273 518/534/518
f 546/563/546 278/286/278 275/283/275 545/562/545
f 533/549/533 279/287/279 276/288/276 532/550/532
f 520/536/520 280/289/280 277/285/277 519/535/519
f 547/564/547 281/290/281 278/286/278 546/563/546
f 534/551/534 282/291/282 279/287/279 533/549/533
f 521/537/521 283/292/283 280/289/280 520/536/520
f 517/533/517 284/293/284 281/290/281 547/564/547
f 535/552/535 285/294/285 282/291/282 534/551/534
f 522/538/522 286/295/286 283/292/283 521/537/521
f 536/553/536 287/296/287 285/294/285 535/552/535
f 523/539/523 257/265/257 286/295/286 522/538/522
f 537/554/537 259/267/259 287/296/287 536/553/536
f 524/540/524 256/264/256 257/265/257 523/539/523
f 538/555/538 258/266/258 259/267/259 537/554/537
f 525/541/525 260/268/260 256/264/256 524/540/524
f 539/556/539 261/269/261 258/266/258 538/555/538
f 526/542/526 262/270/262 260/268/260 525/541/525
f 540/557/540 263/271/263 261/269/261 539/556/539
f 527/543/527 264/272/264 262/270/262 526/542/526
f 541/558/541 265/273/265 263/271/263 540/557/540
f 528/544/528 266/274/266 264/272/264 527/543/527
f 274/282/274 231/238/231 230/237/230 284/293/284
f 419/432/419 418/431/418 507/520/507 506/519/506
f 459/472/459 422/435/422 398/410/398 396/408/396
f 548/565/548 139/143/139 116/119/116 119/122/119
f 549/566/549 550/567/550 113/116/113 115/118/115
f 551/568/551 552/569/552 112/115/112 114/117/114
f 550/567/550 553/570/553 111/114/111 113/116/113
f 552/569/552 554/571/554 110/113/110 112/115/112
f 553/570/553 555/572/555 109/112/109 111/114/111
f 554/571/554 556/573/556 108/111/108 110/113/110
f 555/572/555 557/574/557 107/110/107 109/112/109
f 556/573/556 558/575/558 106/109/106 108/111/108
f 557/574/557 559/576/559 105/108/105 107/110/107
f 558/575/558 560/577/560 103/106/103 106/109/106
f 559/576/559 561/578/561 69/71/69 105/108/105
f 560/577/560 562/579/562 104/107/104 103/106/103
f 561/578/561 563/580/563 70/72/70 69/71/69
f 562/579/562 564/581/564 130/134/130 104/107/104
f 563/580/563 565/582/565 129/133/129 70/72/70
f 564/581/564 566/583/566 128/132/128 130/134/130
f 565/582/565 567/584/567 127/131/127 129/133/129
f 566/583/566 568/585/568 126/130/126 128/132/128
f 567/584/567 569/586/569 125/129/125 127/131/127
f 568/585/568 570/587/570 124/127/124 126/130/126
f 100/103/100 571/588/571 123/126/123 101/104/101
f 569/586/569 572/589/572 122/125/122 125/129/125
f 570/587/570 573/590/573 121/128/121 124/127/124
f 571/588/571 574/591/574 120/123/120 123/126/123
f 572/589/572 548/565/548 119/122/119 122/125/122
f 573/592/573 575/593/575 118/121/118 121/124/121
f 574/591/574 576/594/576 117/120/117 120/123/120
f 134/138/134 133/137/133 440/453/440 439/452/439
f 575/593/575 549/566/549 115/118/115 118/121/118
f 576/594/576 551/568/551 114/117/114 117/120/117
f 515/530/515 514/529/514 417/430/417 416/429/416
f 442/455/442 441/454/441 191/197/191 190/196/190
f 416/429/416 419/432/419 445/458/445 425/438/425
f 419/432/419 506/519/506 428/441/428 445/458/445
f 506/519/506 509/522/509 429/442/429 428/441/428
f 509/522/509 513/528/513 433/446/433 429/442/429
f 513/528/513 462/475/462 438/451/438 433/446/433
f 462/475/462 465/478/465 444/457/444 438/451/438
f 465/478/465 469/482/469 447/460/447 444/457/444
f 469/482/469 473/486/473 449/462/449 447/460/447
f 473/486/473 477/490/477 451/464/451 449/462/449
f 477/490/477 481/494/481 453/466/453 451/464/451
f 481/494/481 485/498/485 455/468/455 453/466/453
f 485/498/485 489/502/489 457/470/457 455/468/455
f 489/502/489 493/506/493 459/472/459 457/470/457
f 493/506/493 497/510/497 422/435/422 459/472/459
f 497/510/497 501/514/501 423/436/423 422/435/422
f 434/447/434 437/450/437 432/445/432 431/444/431
f 437/450/437 461/474/461 443/456/443 432/445/432
f 461/474/461 467/480/467 446/459/446 443/456/443
f 467/480/467 471/484/471 448/461/448 446/459/446
f 471/484/471 475/488/475 450/463/450 448/461/448
f 475/488/475 479/492/479 452/465/452 450/463/450
f 479/492/479 483/496/483 454/467/454 452/465/452
f 483/496/483 487/500/487 456/469/456 454/467/454
f 487/500/487 491/504/491 458/471/458 456/469/456
f 491/504/491 495/508/495 420/433/420 458/471/458
f 495/508/495 499/512/499 421/434/421 420/433/420
f 499/512/499 503/516/503 426/439/426 421/434/421
f 503/516/503 511/524/511 430/443/430 426/439/426
f 511/524/511 515/530/515 424/437/424 430/443/430
f 515/530/515 416/429/416 425/438/425 424/437/424
f 439/452/439 442/455/442 99/102/99 139/143/139
f 134/138/134 439/452/439 139/143/139 548/565/548
f 131/135/131 134/138/134 548/565/548 572/589/572
f 188/194/188 131/135/131 572/589/572 569/586/569
f 138/142/138 188/194/188 569/586/569 567/584/567
f 135/139/135 138/142/138 567/584/567 565/582/565
f 144/148/144 135/139/135 565/582/565 563/580/563
f 148/152/148 144/148/144 563/580/563 561/578/561
f 152/156/152 148/152/148 561/578/561 559/576/559
f 156/160/156 152/156/152 559/576/559 557/574/557
f 160/164/160 156/160/156 557/574/557 555/572/555
f 164/168/164 160/164/160 555/572/555 553/570/553
f 168/172/168 164/168/164 553/570/553 550/567/550
f 172/176/172 168/172/168 550/567/550 549/566/549
f 176/180/176 172/176/172 549/566/549 575/593/575
f 180/184/180 176/180/176 575/593/575 573/592/573
f 182/186/182 180/189/180 573/590/573 570/587/570
f 187/193/187 182/186/182 570/587/570 568/585/568
f 143/147/143 187/193/187 568/585/568 566/583/566
f 140/144/140 143/147/143 566/583/566 564/581/564
f 146/150/146 140/144/140 564/581/564 562/579/562
f 150/154/150 146/150/146 562/579/562 560/577/560
f 154/158/154 150/154/150 560/577/560 558/575/558
f 158/162/158 154/158/154 558/575/558 556/573/556
f 162/166/162 158/162/158 556/573/556 554/571/554
f 166/170/166 162/166/162 554/571/554 552/569/552
f 170/174/170 166/170/166 552/569/552 551/568/551
f 174/178/174 170/174/170 551/568/551 576/594/576
f 178/182/178 174/178/174 576/594/576 574/591/574
f 184/190/184 178/182/178 574/591/574 571/588/571
f 190/196/190 184/190/184 571/588/571 100/103/100
f 442/455/442 190/196/190 100/103/100 99/102/99
f 501/514/501 505/518/505 427/440/427 423/436/423
f 505/525/505 434/447/434 431/444/431 427/531/427
f 399/411/399 425/438/425 445/458/445 400/412/400
